/* XPM */
static char *result[] = {
/* columns rows colors chars-per-pixel */
"64 64 176 2 ",
"   c #060E14",
".  c #080F16",
"X  c #071116",
"o  c #091117",
"O  c #0C131A",
"+  c #0F191E",
"@  c #10171C",
"#  c #12191E",
"$  c #281F1C",
"%  c #35251D",
"&  c #353C1D",
"*  c #151D21",
"=  c #1D2623",
"-  c #1F2926",
";  c #1F2629",
":  c #1F2A28",
">  c #212724",
",  c #2D2622",
"<  c #222A26",
"1  c #242D2A",
"2  c #282F2C",
"3  c #312924",
"4  c #3C2C25",
"5  c #293623",
"6  c #26302D",
"7  c #2A322D",
"8  c #333D25",
"9  c #292E32",
"0  c #2D3531",
"q  c #2F3933",
"w  c #2E343A",
"e  c #313733",
"r  c #333A35",
"t  c #313539",
"y  c #363D39",
"u  c #383F3B",
"i  c #42291C",
"p  c #453127",
"a  c #463329",
"s  c #4A352A",
"d  c #4E392C",
"f  c #543727",
"g  c #5E3C2C",
"h  c #513C31",
"j  c #623E2D",
"k  c #37441E",
"l  c #3B4427",
"z  c #3E4A23",
"x  c #3B442B",
"c  c #3B4535",
"v  c #37403A",
"b  c #3B423D",
"n  c #424D25",
"m  c #424A2A",
"M  c #465225",
"N  c #47512B",
"B  c #4A542D",
"V  c #515D2B",
"C  c #434C33",
"Z  c #494F32",
"A  c #434A3A",
"S  c #5F493B",
"D  c #485235",
"F  c #4B533C",
"G  c #515D32",
"H  c #525A39",
"J  c #63412E",
"K  c #6B4734",
"L  c #784F37",
"P  c #72523F",
"I  c #7C533A",
"U  c #58642F",
"Y  c #5E6839",
"T  c #373B40",
"R  c #3B3E42",
"E  c #3E4541",
"W  c #3F4448",
"Q  c #404642",
"!  c #454B45",
"~  c #484E47",
"^  c #42454A",
"/  c #474E49",
"(  c #484F49",
")  c #475046",
"_  c #495045",
"`  c #475049",
"'  c #4B524B",
"]  c #515745",
"[  c #51564F",
"{  c #51584F",
"}  c #4A4D53",
"|  c #4D5452",
" . c #4E5259",
".. c #515750",
"X. c #545A52",
"o. c #595E56",
"O. c #52565D",
"+. c #54595F",
"@. c #5B5E59",
"#. c #5C6647",
"$. c #5C6257",
"%. c #5C625A",
"&. c #606741",
"*. c #666D56",
"=. c #61665D",
"-. c #62695E",
";. c #565B61",
":. c #595D64",
">. c #5C6266",
",. c #5E6369",
"<. c #656A61",
"1. c #6A6E64",
"2. c #61666A",
"3. c #656B6D",
"4. c #6A6E6C",
"5. c #6D7166",
"6. c #6E7369",
"7. c #72766C",
"8. c #75796E",
"9. c #797B6F",
"0. c #676D71",
"q. c #696E72",
"w. c #6D6E79",
"e. c #6B7274",
"r. c #6E7478",
"t. c #727675",
"y. c #767A71",
"u. c #7A7C72",
"i. c #72767C",
"p. c #737A7C",
"a. c #81543B",
"s. c #8C5B3E",
"d. c #946345",
"f. c #986649",
"g. c #AA6D4C",
"h. c #AE7757",
"j. c #B47D5A",
"k. c #7D8175",
"l. c #7E8178",
"z. c #B9825E",
"x. c #818477",
"c. c #818579",
"v. c #777D80",
"b. c #797F82",
"n. c #7B8185",
"m. c #7D838A",
"M. c #82868B",
"N. c #848B8D",
"B. c #878D90",
"V. c #898E91",
"C. c #8B9393",
"Z. c #929A97",
"A. c #949B9A",
"S. c #959C9B",
"D. c #9AA19D",
"F. c #ABB09B",
"G. c #979FA0",
"H. c #9CA3A2",
"J. c #9FAAA5",
"K. c #A4A9A8",
"L. c #ADB3B2",
"P. c #B0B6B5",
"I. c #BABCB5",
"U. c #B9BEBD",
"Y. c #B7C0BD",
"T. c #BAC2BF",
"R. c #BDC5C1",
"E. c #C1C7C3",
"W. c #C1C9C5",
"Q. c #C6CCC9",
"!. c #C8CCC9",
"~. c #CCD1CD",
"^. c #CFD5D2",
"/. c #D1D6D2",
"(. c #D4DAD6",
"). c #DADCDA",
/* pixels */
"! ! ' ' o.~ 2 X.[ X.[ ' ' ' ' ' 7 _ ~ ~ ' ' / ' ' ( 0 X.' / X.<.5.` u.X.1 [ ' ' ' ' [ { ' ' < _ ( ~ ! ~ / / ' ' b ' ~ | ' ( ' ( ",
"..' ' ! ~ ' 1 X.[ ! ( ( ( [ [ ( 7 ' [ ~ | ( ~ ' ' X.0 ' ` X.' / ..' ' %.1 1.! ~ ` ' ' ' { ' 2 1.~ / ' ~ ' ' ! ' y $.' ~ ~ ~ ~ ' ",
"' ' b _ ~ / < { ' ~ 2 ( ! ! ~ ' e [ [ ~ ' [ ' ' @.( 7 [ Q / * + o ' / ( 2 =.Q ' ' ' { ' ! ' = <.~ ( ( ~ / / ' / y -.' ' ~ ' / ' ",
"! ~ ! ! / r < o.[ ! e ! ! [ ' ~ e =.~ ' ! ~ ~ ( | ( 0 ( / @ P j.j.o O / < ~ E ~ ' ! Q { ! ~ 1 1.| ' ! ( Q ' ' ! b 7 _ ~ ~ ( / b ",
"< < < < < < 0 < 2 < 1 1 < 1 > < y < 2 > 1 < 1 1 1 > y = = o P h.j.+ O = < 0 : : < < 1 < < < < e < < < < < 1 < < r y 2 < 9 1 1 1 ",
"[ b b { ' o.o.o.{ X.H M ~ [ ' ! Q ~ ~ [ Q e b ! X.o.6.6.o z.S o o j.j.. 0 6.7.y.7.u b u u y u r y y ..y b ' ' ' ' ! / $.@.b b [ ",
"! 7 1.' ' ' ' / ' _ ] 2 ' @.[ ~ ' ' ~ X.' 1 > ! o.V ~ ~   a.d o . a.I o 0 b ' / ~ 1 7.' ' ' ( ' ! / Q 2 u.' ' ' ~ / ~ ' ' b ! 1.",
"' 6 ' _ ' ' ' ' ~ o.u 7 ~ ' | ~ ' ~ { ~ ! < 1 ! U & ' ' o I s o . a.I o 1 ~ ~ ! ~ < 7.=.@...~ ~ ! ' ~ 1 < ' ' ' ' 6.Q ' ~ b [ ~ ",
"Q 1 1 ( ' [ ~ ( ' ~ 7 7 ! ' [ ' ' ' / ! b < 2 _ ! ' ' ' . j 4 T.E.j j . 6 ! / ! b 1 7.~ ( ' ~ ! ' ' ' 6 1 ' [ ! ' ~ %.' ! b ~ ! ",
"r < 1 u ' ' ~ 1 ' ' Q 7 < ! ' ' ! ' ' y b 1 1 > ~ / / ' O . O r.b.+ . . < v E ! < < ' ' [ ' ' 0 ! ! ! 1 < Q ! Q ~ / Q b ` v < ! ",
"u b u u u u b r y b y y b b b b b y y y y b y b b b v b t O R.b.;.O . 1 : < q E b E b E u b u M M y r b u b r y e r u e b u b b ",
"' ~ [ ~ ' ! > [ ' ' ..' X.{ ~ ' 0 ~ / ~ ' X.' C [ ' 7 | O K. .O O P.L.O : b ' ' ( Q ! ~ ' ! z x ! ` ~ ' ' ' ' ' y @.[ ' / Q ! ' ",
"~ ( ( / o.[ 1 [ ' ' ~ ) ' ~ ' ' 7 ~ [ ' ' ' _ b ' X.7 X.X J.;.O O P.L.. : y ` ' / ' ) ! ' ' U H ! ` ` ! ) ' y ~ b $.' ! y ~ / ' ",
"' ( ' ~ ' X.< [ ' ' ! ' ' ' ' ' 7 [ ! ' ' ' Q { ' ' 7 ' X v.W + O v.v.O : / ' | ' / ! ' ' ! 1 <.! / ! @.' | ' ' r 7 / 0 ' ' / <.",
"( / ( o.! ' < ' ' b Q 1 ' ' ~ / 7 ! ..Q ' ' ~ X O # : ..` O o ;.q.. . 1 = W : O   / / ' ' ~ 1 <.' ! ' b ! ~ ' / y 7 b ! ! ' ! u ",
"> 2 > 1 8 < 7 7 6 : < < 1 < < < 7 > < < < + o (.o O : 0 1 O O R } O X ; 1 0 * o (.. O : < : 1 y < < = : = < < : r e < < < < > < ",
"y V M k.l 7.8.u.u.u.u.b k.8.8.u.y.y.y.y.O E.Q.G.+ + r y.y.O C.U.p.o O 0 6 u.q X G.^.~.+ 2 u.7.y.y.y.u.u u.u.u.u.u.n *.n ] u u.7.",
"0 M F ~ ' ' ' ' ' ' ! b ' ' ' ` ' ' ' ' + R./.H.o + < ' | O Z.~.V.X o < 6 ' : O K.W.^.o 6 ' ' ` ' ' ~ 7 1.' ~ ( ` ' N ' A y ....",
"7 b [ / y { b ' %.' ` b ..{ b ' ' ' ' O /.P.K.b.X O : 1 ' o ,.N.e.O O : < 6 # X 0.G.J.E.o 6 1 | ( ~ / 1 7 ' ' [ ' ! ' ' 2 r / ~ ",
"7 y ' ' _ y ' ' ' ' ! u b ' ` %./ + + ^.!.p.e.0.W R O : q . d I d o o : 6 O w  .b.;.;.H.w.+ O 2 | ' ' < = _ ' ' ' ' ! ! $.y | ( ",
"= E 2 / ! 0 Q ~ 0 E 1 b 1 ~ ( ~ ' O + ~.~.p.3.3.} E + : 6 o , a % O o 1 < O t  .v.O.:.D.i.O O 7 / ! X.: 1 ! Q ! ~ ! Q ! E y ~ ~ ",
"b E u u b y y r b E b u E Q E u v O O ~.,.e.3.3.n.n.W o o o O   . O + o   } >.n.w. .+.:.D.# . < y y b b b v u u ' b b b b u E b ",
"..' ' ' Q ' < X.c ' C ' / / ' ! o N.m.J.>.r.r.3.r.p.v.v.W } L.^.v.E T o N.t.p.p.2.3.3. .S.@.O.. 6 1 ( ` ! _ / u 7 -.' ' ! C / ' ",
"! / ~ $.~ [ 2 o.~ / ' ' ( ' ' ~ o R.T.D.2.n.p.4.p.n.>.:.>.+ 0.e.w.O O :.3.3.3.t.>.e.3.+.3.3.e.O 2 1 W ' F { E ' 7 =.' x Y l ' ' ",
"! ! ..u ' ! 1 o.' Q ~ / ' ' ..~ o R.R.G.,.n.l.0.n.v.>.>.O.o >.m.e.O O O.2.,.4.p.3.3.3.+.3.3.3.. 1 6 < / ! E ' ~ 7 [ ! ! 8 ~ ! ' ",
"( Q ~ ( ! ~ 1 o.b Q ~ ' / ' ~ 0 O R.Y.B.0.r.0.e.,.,.,.,.O.+ C.(.2.o O  .3.3.2.0.2.O.+.:.3.3.3.O : 6 6 / ~ e / ~ 2 < ! ~ ! ! ~ ' ",
"> 1 2 1 1 7 b 0 1 2 < = < 7 1 2 O H.S.B.,.0.0.0.,.,.0.e.T ^ p.V.0.t t o 4.3.3.3.O.q.q.O.3.^ ^ O ; = 1 < < 7 1 < b u < > 1 1 1 1 ",
"/ y X.~ ' ! ' ! ~ / 7.7 ! 9.u./ O H.H.m.0.4.0.,.,.,.0.,.t } e.b.2.w t O ,.>.,.3.:.3.4.O.3.^ ^ O 6 1 < ' o.! ' < b Q ! ! ~ 8.7.X.",
"o.r ' { $.' { b ~ ( / 0 < ' ' ' O +.;.S.b.:.+.e.0.3.T o O X o   . + . o X E | 2.3. . . .C.} ^ X : 6 : ` ) ' ! ' u ( ~ Q ~ ' E ..",
"~ r $.' $.' ' | E ' ~ 7 y.' ' ( ` O O S.;.O.:.;.y 6 o 6 6 o 4 K g O o 2 - O 1 E  .}  .Z.} @ o < 6 0 6 / ' ! ~ ' E / ( ( ( ~ ( / ",
"@.q ' ' Q ' ' ' ! / b 0 1.' ! ( | o O H.;.+.:.;.w w X 1 < o a L f + O ; = O ; T O.O.+.C.} O + : : 6 1 ( _ y ! 1 E X.( ~ ( ( ! ( ",
"< r l = 1 2 < < 1 > > y < = > < : O o H.Z.,.;.;.+ + - = : o s d.j + . = = ; + O p.} O.Z.} O o : < : : ; 1 1 > 7 b 1 1 > < 1 1 < ",
"-.V M <.l.l.u.k.k.Q u.b k.u.u.u.l.7.7.+ H.M.b.} O + w y 0 O s d.j + O t r #.1 O } A.Z.,.o 6 w q %.6.8.y u.%.y.7.8.u.u.u.0 b k.k.",
"' M ' M ' ' ' ' ' ! ' b $.| | ' ~ | ( * 4.V.N.O.O + 6 : w o d f.J O O 7 6 ` < O +.m.N./ + 2 1 1 { %.' b X.| / ' l k ' ! 1 8.~ ' ",
"! y ` ' ' ) ! ' ' $.' E ! ' ' ' ' ' ~ 7 o S.S.q.+ + 0 1 ..O d d.j @ O 1 6 ( = o r.w.0.O 2 6 6 1 Q ' ` E ' ~ ' ( 5.' / / < 4.' ' ",
"` b ' ' ' ..Q ' / ' ' b < ! ( ! Q @.! ! 1 O o n.O O 6 1 ' o a L g O O < 1 ..: o n.  + 6 : 1 6 ' ! ' ~ b ( ' ' ' ` ` ' ! 1 7./ ' ",
"< y 7 ~ [ [ ' e ' ' ! y < ! / ' ' / Q / < < 0 O X O 6 7 ' O s a.J o o 6 < ! * o + < : < < ! ! ' ' ` > E 1 ' / ~ ! ( ( ~ < [ u ! ",
"b Q b ! b u b b E b E b b E u y b b b b b b b O o + < < b O s d.j + O : 1 y = O + < 6 < 1 y b E E Q b b E b b c y u Q b u u Q u ",
"' ' ' ' ' ! b ' | ~ ! / %.<.' / b ..~ ~ ' ' ' 1 1 6 6 < ' @ s f.J @ + 2 < ) ' | < 6 6 2 ' ' v ..' ~ ' ' ' ' ' ! B F ! ' [ ( ( ( ",
"' ' ' ' ~ ' u ' =.' / / ~ | ~ ~ u ( ( ' / 2 ' ` ' ' 6 | ( + s d.j + o 6 6 / / ' | ! / ( ' ~ b ' ` ! ' o.o._ ' ' u X.( ( ( ( [ ( ",
"' ' ' / / ' y ~ X.' ' ' ' ! ' / E ~ ' ! ' / ' ' ' ' 1 ' ' + , p 3 O O > < 7 ' ' ' ! ' ! ' / r -.' ( ' ' ( ( ~ ~ b ~ ' ' ' ~ ' ! ",
"! / / ' ~ ' u X.b ! Q ) ! / / < y ' ' ! ! ' ' ) Q ! Q ` / . @ O O . O < 6 1 ! ! ' ' ' ! Q < v / / ~ ' ' / ! ' ! u A ' ! 0 ! ! b ",
"< < < 1 1 = u < < > > 1 1 1 < > Q < 1 1 1 < < < < < b < < o @ 3 , + O = < < = 1 < < < < < < ! = < < 1 < < < > < b > < < < < > < ",
"' y W 8.y.u.u.y.9.6.Z b y.7.7.u.7.7.u.8.8.u ! <.' -.1.1.4.O p K g O o 0 t 1.u.8.8.u 7.6.8.y.7.y.u.8.5.t y y.x.7.7.7.1.7.o.b 7.6.",
"r y #.' ~ ` ( / b ' ' 7 ' 1./ / ' ' ' ' ! 7 { Q ' / ` ' ( O s j g . O 1 1 Q ' ' $.Q ' ! ' ! ' ( ' { E 7 8.' ' ' ..7 ) M A y ' ' ",
"n m x / ( ! ' | ' =.' 7 [ ' ' ' ' ~ ' [ ' G ! ! ' / ' / ( . j s.g o . 1 2 / / / / u ! ! ( ' ' | ' W ) < < ~ ' ' X.' B V b u { { ",
"u u ! ! / ' ' ' ' ' ' 0 7 ' ' ' ' ' { ' G z < ! / e ( ( ( * O # * O O < 1 ! / ) =.b ! ' ( ~ / ( ' ! ' < 1 ' ' / ' ! A ! b b ' [ ",
"< u 2 7 2 1 6 2 1 7 1 b 1 1 < < 1 < 7 7 5 7 1 1 < 2 < > > O d s.j O @ = : : < < 1 b 1 1 7 < < 2 < < 6 r < 1 7 1 1 7 6 < < b < 1 ",
"E u b b b b b u y u b E E E E b v E Q b D D b b b b c b W O $ i % O O : < 0 E y E b E b b Q u b b b b Q b E b Q b b b E y l c b ",
"' ' ' ' ! ! < $.' ' %.) / ' ' ' 1 8.' ' ' ' ' ' ' ' 0 ~ ..O O O o o + 6 < ! ! | ) ! ' y ' o.2 7.{ ! ' ! / ` ' ' b =.' ' / b ' ' ",
"' / 2 b ' ' < X.' ! ` ' ' ' ' ' 1 5.' ' ! 7 _ ` ' ! 0 ..* b.U.).A.R T + : / ' ( ' ` ! y ~ ~ 1 o.' ' ' ' o.! ' ! y $.~ ~ b ' ) _ ",
"' ~ ' ' E / > o...' ' ' ! ' ' ' 2 1.' ` ' ) ' ` ' ' 7 ' + b.U.).C.^ W O : E ( / ' ' E ! ~ / 1 =.! / ' _ / ! ' / y 0 ' 1 ' / / ) ",
"! / / ' < b < y ! %.' ~ ' ! ' ' 2 : E ! ! ! 2 ' ' ! = ' ' + O . O O + O : : 6 ' ! / e / / ! > 1 ! ! ! ! ! ! / ! b 6 ! / / ! ! ! ",
"y b b b y b Q b b y b b b v b b y E b b y v y b b b E b u O 4 L j O O = < 1 < v v y r b u b b Q b b v y y v y b b E ! r b y b b ",
"/ 7 ! | %.| 7.u.' ~ u.> t.y.u.y.u.%.' ! ! 1 y ~ 8.( ../ ' O h g.g O + 1 0 < 1 ` ! > 8.k.' | u.u.' 9.' 6 < y.~ ' { ! ' / ' y v -.",
"~ 7 ..o.( ( ' ~ ' ~ 7.7 / Y D ' ' / ' ' / 1 > ! ' ' ' / ' + $ f i o o 2 < b ~ ' ~ < 6.' ~ ( ~ ~ / ' ! 6 o.' ' / ' ! ! ..' b Q 6.",
"~ 1 | ( ' ~ ' ' ' ' _ 1 ! n _ ' ' | ' ! ' : 1 ! ' ! / <./ O + j J + O : 6 E X.` ! < u.' ' [ ' [ ` ` W 6 1 ' / ..' ' ! / ' y ' ! ",
"! 1 1 ' ( ' ' Q ~ / | 7 < [ ! ~ ~ ' / ! A < < / / ! E ! ^ ( 6 + O 1 1 : 1 y E E E < -.( ~ ' ~ 2 W ` | : < ~ ' Q ' ' / _ ~ y ~ ! ",
"< y 7 2 > < = < < < = b < 1 < > : < < = < y 1 1 < < 2 = < < = o O = = = = = < < < y 1 < < > > < : : : 6 < < 2 > < : : - < b < 1 ",
"c.x.l.u.u.u.b y.u.u.u.u.k.u.u.u.y y.7.7.B m y.u.u.y.u c.c.u.l.6 1 6 : 1 < b 9.u.u.u.u.y.7.7.y k.k.k.r.h.u.u.7.u.b 9.7.7.I.1.n u.",
"~ ' | ~ ' ..0 [ ' ( ' ' ~ ' ( / e ' ! ' =.' ( ' ( ( t ~ { ' ' ! ` < 6 6 1 =.' ' / / E ' ' ' y ' %.' ` ' ! ' ~ | r [ ( K.F.D.l ~ ",
"X.u / / ~ ! 7 ..( ~ 0 ~ ' ~ ' | e ' ' ! ~ ' ' ( | ~ y ~ ' ' ) ' ' 0 7 7 1 $.! ~ ! ~ ' / o.! b ..' ` ' ! ( ' ( ' u ..&.~ K.~ ' ~ ",
"' ( ' / E / 0 ..( ( 2 ' ! | ' ..e ' ~ ~ ! ~ ..E ! ! r Q b ' Q ' ' ' ' ' < 1.~ ' ~ / ! [ ~ ' r ! ' ) ! ) ~ ! / ~ u @.' ~ ( ' ' ( ",
"r 0 r q 2 6 0 2 t q 7 7 0 q 7 r 0 0 e r e e e e q 7 y > e r r r t r r e < < r 0 0 r r 0 e 7 r 7 r e r e e e r = u 0 e r e 7 0 e "
};
