/* XPM */
static char *result[] = {
/* columns rows colors chars-per-pixel */
"64 64 82 1 ",
"  c #2A2E19",
". c #2B3414",
"X c #2D3910",
"o c #2D3319",
"O c #30371A",
"+ c #333C1B",
"@ c #2B2B25",
"# c #2E2E2E",
"$ c #302F2F",
"% c #2F302F",
"& c #313325",
"* c #343923",
"= c #31322D",
"- c #363829",
"; c #3C3F29",
": c #312F30",
"> c #2F3030",
", c #343333",
"< c #383736",
"1 c #383837",
"2 c #393738",
"3 c #3C3B3B",
"4 c #403F3E",
"5 c #374120",
"6 c #3A4121",
"7 c #3F4333",
"8 c #414D23",
"9 c #444F29",
"0 c #444735",
"q c #464C35",
"w c #41423D",
"e c #46493C",
"r c #413F40",
"t c #444343",
"y c #484747",
"u c #4A4A46",
"i c #494748",
"p c #4E4D4D",
"a c #504E4F",
"s c #4F504F",
"d c #51504F",
"f c #4F4F50",
"g c #514F50",
"h c #535151",
"j c #585656",
"k c #575856",
"l c #595957",
"z c #595658",
"x c #5D5C5B",
"c c #605F5F",
"v c #5F605E",
"b c #61615F",
"n c #615F60",
"m c #646463",
"M c #686767",
"N c #676867",
"B c #696867",
"V c #6C6C6B",
"C c #716F6F",
"Z c #6D7364",
"A c #6E706D",
"S c #70716F",
"D c #747472",
"F c #7A7A77",
"G c #7D7D7B",
"H c #7F807F",
"J c #82837E",
"K c #87897E",
"L c #848582",
"P c #888786",
"I c #878884",
"U c #898A86",
"Y c #8E8E8B",
"T c #908F8D",
"R c #8F908D",
"E c #91918E",
"W c #939391",
"Q c #959894",
"! c #9E9F9B",
"~ c #9BA096",
"^ c #A7A6A7",
"/ c #AFAFAE",
/* pixels */
"aahaggHaaaaaaaaaEddaaaddapEaaaaaada@cpaghgggaFgggaaaaaaj,hgaaaaa",
"adjaaaYaaaaapp4aEaaaaaaaayEgaaaaaaa1caaggggah,aagaaaahhl,aaaaaad",
"aappfaYpapaaapaaTaapadadgtEaaaaiaaa,mhagg,gga3gaahagaagla,taaaaa",
"ppgaggUpppp,p:iiEpapaap,a=Waaappaaa$Baaaap2ig,<gaaaaaagh,daaaaaa",
",,,,pRRY,,,,,,,,Y,,,,<,,,IT,,,,$,,WTQL4,=,:,,ET,,,$,,TTTx,,,,=,,",
"FEYxRWQaLJhTEWpCDREaTECShaaJhYYLJUTxSUaaEYupYUYThhTUHDJaTjVBEETm",
"ggghhgggaapPxgappagg21hgaaaagaEhaaaaaaaab<agaamgaaBaaaaaaat,Epaa",
"fprpmgghgpgWpaaaghag,,ggaaaaggEgaaaaaaaac<aaggaxaaMaaaaapaa:Wpaa",
"h,3gaaspffpWppppphjh,,jupphaaaYaaaaagagaM,adaaaaapmpaapppaggEipf",
",L2,ttwtt,,E>ttt,r32I,3373yrw3W,,y44ww32E,=431112<E,,3w,3tw,E,,t",
"WWTYYYEoRYWUERYRYYYREYYYTTRWEWEWETTTEEEEEETTRRJEXoXoEEETYYEYRETY",
"gfpjha3,ggxgapgfTaaghhaafpE2ggghaaa3xhmaaaaas,jadaaaagam<gahaagg",
"dgaaap,<aggaaaggYgggggagfpWpagpaaaa<,aaadgaax,hgagdaaddm3aggaaag",
"appzmp,,fappaghaYpadagdpftTfgggaaad2&daaaaapa,ahdaaaaadm,aaaaada",
"upppps,,ahp,hgpuYpphha,hg,Ypppaampp,uaaaadaaa,,ppppapaab,ppptppg",
":$,,VYRY,##>>:,,R#,>,#,#ERU:>##>$,$UY,$==,,,:YTE,%#,,YYYj,#:>>#,",
"WTshRYTplEWTETaaahggUWRWahgEYURfgEEYhYp++OEEYaUYhjYYEht,2YTEpYaY",
"ipfhpapdgg,haaaapag3,2gghpghagRpaggapdpp phaaaghp,Epaaaa,,ypaaaa",
"tsp2paaaaa,haaaaghhu<<apphppapYpamaaahdpUdaaaagmgpYgaaaa,waapaaa",
"tupppppagd,2agaaadsa<,,dgphpatY,padpapppR,pppadappRgdppV4apppaaa",
"3d<$,,,,,,T,,,:,:,,@Uj>,,=,<:2W,,,,=,>,pT,,,,#$,,yE,,,,WW,$,,,,=",
"RTTTYWO+q.ETYTYTEYTERRTYYYYEWYYTTYTYEEEEEETTYYYYYYETUUETETEEREYU",
"hdaadd*uh1aggaag2ghadaNhhtY2gap,gag2DpdpaahahhxggamxdahagddtThhx",
"aaadadldhp4gaaapUhhaaaadh3Eaaap,adp,3ppdtaaaagxgmal#adghgaatWggg",
"aaadaalghpgapgafWghaphpaa3Eafaagada,3apa3aaahaggpak,fgffahatEdda",
"aagaaaxwaapigfpgWgpaasgpp,Ygapppaaa23ap$gapagh,ugpk,p:gfaaa4Q3pa",
"jhjjYETYAsghpppUEjjhhppgpYThhfppahkUbsppppapTYjshWWpppppdaaEYipp",
"VRppCCgVVpLY4lhjhVhhhYDhhVfVDDEwamVaVBjSYMgChYVJgfggggfPBmdVdacx",
"ttsd,fgggp,,aaaapfpp,,gppagppgWpgpggdag,aaaap2hgaaahg2yLppggpaaa",
"2yfpu,paxa,,papapp32,,aappagaaY,ppapaah,fpaafmggadaafu7Hypaadaap",
"<ypff,ppga,,aa,pp,,,:,gppapgghE$,paaVga,,pagpm,pppapp,tJ,,appppp",
"Rw<>>,=:,,WU<,,,,,,EYY,,,,,,,EE,,:,,$,,E,<,,,WA2,,,,<,2R,$,,,,=,",
"ppppadRcLpppaaYK+YppppappQEdhgpppa*8ZpaaR,YYgfDYfhWapYYgTYhWRhWf",
"zggaagE2gapaaaai*aaapppapwE,ppaagmp;wahaPgfggpgggpWpagpggha,,sdp",
"ggpgmaYp3ggaaagitdaaaaaam4W,,gaagaaepzg,YgaaftppgpWfgpggggp,1ppa",
"aggaagY,t3aaaafuLphapagfa4Wptpagaaa#paahYpagaa3i3aWtfgfggfp,-paa",
"p3yua,W,,,hptit1Hpppu,yup,Y=,p2,upp=ippyE,,fpp,yp,W,2uu,ppu>,,,p",
"RYYREVETTYYYUYTTYRRYTTYWREEYTYYYYYYTUYYYWYRRYRRTRTEEEWWEYREYYYYY",
"hhhfggWgghpggVDhWhahhhhgaaUhhgghaBj3agaaggaaaVppaadgggpYhmggphPP",
"hBzgaaEgjggphggpEaaaapaxayEapgghhga3yaaapxaagmaaagaap,pWfhagpppf",
"hgggaaEhhaapgappEaaaa,aaatEtaahdjaa<ugfaaaaaabdhpaggad3Eagaaaaaa",
"gfppapYpppppaag,Eaaa=taah,Utpppdapa,,daa,aaaam,hggppp,3Qpappaaaa",
"mmmmbWElxmmmmmmWEBBBBVVMvRRU-&*lcxxEVlb&&MmmTEFmmmmmmmmEmxxbvmmL",
"ERVFgaahafGYaUgGhIaaDYCagpdU 5+yaahaGhauOIadpayiLpWgdhpaaahmEygg",
"yxagjaaaaaiTxgghdpgg21hpppggfpLgaagaaxgpl,paagaapaWpxa1aaah,3pag",
"tbaagaapgpu2ahhhagap,,adtppahpTgaaaaaah3j3paaamaapWpsa,aahd,1pah",
"tagaaa3gppt2ppp32dg2,,wpg<aaffW3aappppp,j,dapaapppWpppypaaa,,,pa",
"bp,2$,,,,,YP,,#,,,uTEY,,=,,:,!Y,,:,$,,IETT-,,,,,<~R,,,,,,,PY=,,,",
"EEjhggTWyYWYYghaPYYhjghhhhWBEYhYWLpETWhgaghuLYTU7007hggEYuYWWETE",
"ddaBgaDarjhhggpgEgaaxgapatThhagggagwDaggafghg,ahfhffgxgmupggggaa",
"gaaaaaFgpdaaagp2EgafgaphptWhhaagdaa,Fgggapaaa<gggasspmhci,gfadad",
"aaaafpDpddafpfgtRpggaga,atRaaggadaa,Faaaah,pp,ghahhpgphl:pggddad",
"ay$pggU,appghp,:T<papfgpt,U=g,appa,,Vapgprz3,,:2fppggp,T,apa,ap,",
"TWWTWWRYEEJL6ETQEYTETEYEEREETTWYYWEETYTYYETEYTTYERTEWEYTEEUY8OTT",
"VEa,paggagp+ggghgpfp,YpmjMaaaaYghphggagfYpgfggahgaldamBhpadp9aph",
"hnh2ppaaaaaEpafgagp,,,aaaaaaVhEgdagaafgfYfggagp<,,jpaagfaaapEaaa",
"hcataaafaaaEppgpp,,a,:pafgagaaTaadhapaaaYggaagapppjpagfgaaapTaaa",
"tp,ppa2gap=Wagap,pap,,pgap4aa<T$apphpgt,Yd3pairgppp,apafaaaaEuaa",
"WT<,,,:,<IRR,,,2,<,YTE,=,,$,,YT,,,--@,LEE$,,,,:,2RE,:,,:,,#RE,,,",
"gadddaEpEhhhhdhEYpWadapaatYydaaaaao++YphdjjhhYQWphdagagRFpER/LET",
"gaaaaaTaaaaaaaaa2pacadaap<Epaaaaaaai-aaahahad2jggaadpxam3ga^^^aa",
"gaaagaYaappaaaapEgaapdpaa,Epaaaaaaap1aadahaaaMgahaaahmamtpaa^aap",
"aaaaaaYapy<ghaaaEaaaapyaa1Ep,aaaaaap,adaaaahgmghdxhaaapm,ggaaaaa",
",,,22:E,,334333:W3333321,#U,=3,333,3,<333,32,E:332112#,E,222,22,"
};
