/* XPM */
static char *result[] = {
/* columns rows colors chars-per-pixel */
"64 64 205 2 ",
"   c #161619",
".  c #19171C",
"X  c #1A1A1E",
"o  c #2C3413",
"O  c #2D321C",
"+  c #343C1B",
"@  c #1D1C23",
"#  c #1E1E28",
"$  c #211E26",
"%  c #211E29",
"&  c #281E2C",
"*  c #1F2028",
"=  c #232226",
"-  c #2B2726",
";  c #24232B",
":  c #2A262B",
">  c #2E2D2E",
",  c #32272A",
"<  c #312E2F",
"1  c #2F312E",
"2  c #333824",
"3  c #31312E",
"4  c #262530",
"5  c #2C2A33",
"6  c #2A2834",
"7  c #312F31",
"8  c #372F35",
"9  c #2F3030",
"0  c #333333",
"q  c #393636",
"w  c #373837",
"e  c #3A3937",
"r  c #35343A",
"t  c #39373A",
"y  c #3B3B3B",
"u  c #423C35",
"i  c #4A3D35",
"p  c #433E3B",
"a  c #493F39",
"s  c #3F471F",
"d  c #3C4522",
"f  c #3F403E",
"g  c #44491B",
"h  c #444825",
"j  c #505321",
"k  c #44403D",
"l  c #49463A",
"z  c #4C433C",
"x  c #524337",
"c  c #534F37",
"v  c #52453C",
"b  c #55493D",
"n  c #594B3F",
"m  c #70533B",
"M  c #353641",
"N  c #3C3B43",
"B  c #3B3B46",
"V  c #413F43",
"C  c #444343",
"Z  c #4A4644",
"A  c #4B4845",
"S  c #44444A",
"D  c #494749",
"F  c #474948",
"G  c #4E4D4D",
"H  c #504742",
"J  c #534B43",
"K  c #5B4D42",
"L  c #504E4F",
"P  c #4F504F",
"I  c #595142",
"U  c #52514F",
"Y  c #5C544D",
"T  c #5F584E",
"R  c #454551",
"E  c #4D4D53",
"W  c #504E50",
"Q  c #4F5157",
"!  c #535252",
"~  c #5C5652",
"^  c #5D5953",
"/  c #53545B",
"(  c #59575C",
")  c #57585F",
"_  c #5B5B5B",
"`  c #635344",
"'  c #63554C",
"]  c #655A4E",
"[  c #6B5949",
"{  c #6C5C4D",
"}  c #775A48",
"|  c #735F4E",
" . c #605750",
".. c #625B53",
"X. c #6B5E53",
"o. c #625E5C",
"O. c #715F53",
"+. c #5F605E",
"@. c #74614F",
"#. c #7A664F",
"$. c #6D6154",
"%. c #65605A",
"&. c #6B635A",
"*. c #756354",
"=. c #796554",
"-. c #7B6857",
";. c #71655A",
":. c #746858",
">. c #7B6A5A",
",. c #555561",
"<. c #5C5C63",
"1. c #5E6163",
"2. c #646463",
"3. c #686967",
"4. c #656669",
"5. c #6C6C6B",
"6. c #766C62",
"7. c #716E6C",
"8. c #7D7265",
"9. c #71716F",
"0. c #7C756A",
"q. c #6D6E73",
"w. c #716F71",
"e. c #6D7172",
"r. c #737373",
"t. c #797976",
"y. c #777978",
"u. c #7C7C7A",
"i. c #AB4425",
"p. c #B24625",
"a. c #BD502B",
"s. c #93613C",
"d. c #B9743C",
"f. c #CA5926",
"g. c #D66829",
"h. c #E37529",
"j. c #E37B2A",
"k. c #E77B30",
"l. c #8C674E",
"z. c #906B4C",
"x. c #866A52",
"c. c #85715E",
"v. c #A9744D",
"b. c #B3784B",
"n. c #A57A59",
"m. c #857665",
"M. c #877967",
"N. c #837A6C",
"B. c #8B7D6B",
"V. c #897E6E",
"C. c #7E807C",
"Z. c #E9862A",
"A. c #EC8B2B",
"S. c #EF972C",
"D. c #E99A2F",
"F. c #E68B34",
"G. c #EC9533",
"H. c #F4B234",
"J. c #8E806C",
"K. c #92816C",
"L. c #9C876E",
"P. c #86827B",
"I. c #988A77",
"U. c #948B7C",
"Y. c #9A907E",
"T. c #A3927B",
"R. c #AC9A7F",
"E. c #B19D7F",
"W. c #C88952",
"Q. c #C5A85F",
"!. c #F7BB46",
"~. c #EEE25C",
"^. c #FAE676",
"/. c #7E8087",
"(. c #848582",
"). c #878885",
"_. c #898986",
"`. c #888887",
"'. c #84868C",
"]. c #8D8D8B",
"[. c #928F86",
"{. c #908F8D",
"}. c #8F908D",
"|. c #9E9383",
" X c #91918E",
".X c #9C958A",
"XX c #908F90",
"oX c #929391",
"OX c #979998",
"+X c #A29685",
"@X c #A59785",
"#X c #A69986",
"$X c #AC9B84",
"%X c #A59A8B",
"&X c #AA9C8A",
"*X c #B19D83",
"=X c #B19F88",
"-X c #ABA08C",
";X c #B5A183",
":X c #B6A389",
">X c #B3A690",
",X c #9C9DA0",
"<X c #A7A6A6",
"1X c #B4B3B3",
"2X c #FAF088",
/* pixels */
"G L ! G L ! 9.G L G G L G G L G ].U G G L G G U G G ].G G G L G G ! U - 9.G G U G G P U L 3.! L W L G L G G L C q U G G G G G G ",
"L G L G G G t.G L G G G G G y G ].G G G G L L G G Z oXG L G G G D G G q r.P G G G G G G G w G L L G L G G U ! C w D G G G ! G G ",
"L G U G U G u.G G G G G G G L G ].L G L G U G G G C }.G P G G D G G G q y.L G L G q D G G e G G G L G L G P G C D 0 e G L G L G ",
"G G L G G G t.D G G G q D 0 C D }.L G D G G G 0 W < XXG G G G D G G G > P.G L G G G 0 D G 0 0 G L G L G G G G p 0 U G G G G G L ",
"0 0 3 0 C ].}.}.0 0 0 q 0 0 0 0 _.e q 3 0 q 0 q 0 P.].0 0 0 3 0 3 0 oX{.].(.P 0 3 0 1 3 0 ].oX0 0 3 0 0 5  X].].5.0 7 0 0 0 3 0 ",
"r.).].( ].{. XL u.u.L ].].}.G 5.5.].}.P P.].3.5.! D G C.L t.].r.t.(.).! 2.(.G G }._.D G (.(.]._.! L _._.t.9.t.L ].G 2.2.].]._.%.",
"G G G G L L L L L L L _.( L L L G E P G t w L L E G U G G G }.! L L G L U G G G G 0 W G G G ^ U L L D L G G L L L G C 0  XC E L ",
"G G C G 2.L G L G G L  XG G G G G ! G G w 9 G L G L G G G L ].G L G L G G G L G D 0 G G L G P ( G G C L G L G G G G G 3 oXS G G ",
"L 0 q E G E G G G G D oXD G G G G G U U w 0 ! G G G ! G E W ].L G G G G G G G G G q G G G E G G G G C G G G G G G G G G  XC G G ",
"0 r.0 0 C f f f f 0 0 ].0 C f f q y y y C.3 y y y e y y k y ].0 q k f y w k y w _.0 1 e w 0 q w 0 0 }.0 q y y 0 e y y e }.0 0 C ",
" X X].].].].].O ]._.]._.].].].].].}.].].]. X  . . . @ ].].}.].]._.@ ; ; }.].].].].]._.].].]._._.o o o o _.]._.].]._. X].].]._.].",
"L L G ! W G e 0 P W _ G L E G G ].E W W L @ u.S ; : ; . . @ . @ $ N '.,X= G 2.P P G G G P 0 o.G U E L G G G U U 0 G L W L G G L ",
"L G G W ! G q 0 G U W L L L L G ].L W G G @ ) C S t t S C C S C S r (.E : E G G G G G G ! 3 ( L G G U G L L ! U 0 G G P G G G G ",
"G G G ! _ G 0 3 G G D G G L L G }.G L P G . 3.r V <.1.. @ V t 6 1.@ 2.G - G P G G P G G G e ! P G G G P G L G G 0 G G G G G G G ",
"D G G G G G 0 3 G G D 0 G G G G ].C G G E X y.S w t r G $ N y @ ( @ 0 S = G G G G G G G G 1 C ! D G G G G G G F q G G G f D G G ",
"> 0 > 7 ! ].].].0 0 > > 0 > 0 9 ].> 0 q 3 $ 1.S 0 0 C ; 5 { W G $ 0 e . ].0 9 0 1 0 0 0 0 (.].].0 3 > 0 0 _.].].2.3 > 1 5 0 1 3 ",
" X].G P ].]._.G ! _.].].].].G G P W L L P.. 2.S 0 r <.V } ..].! 5.= : * <._.U + + O ].].].G P._.P ! ].)._.! Z 0 0 ].].].D _.G ].",
"G _ G G G G G G E G q 3.G L G G G G L y 0 . _ S 0 r : Y z.W _.E r C C ; N P G G O D G G G G E G G 0  XG P G G G 0 0 C G G P G G ",
"F _ G w G G G G G P 0 o.G G P G G ! L F 7 X <.y r 7 p #.: G (.a Q : @ f e ( Y S (.G G G G G G 2.G G }.G G G G G 0 C G G G G G G ",
"Z _ G G D G G G G U 0 D G G G G E L G L 0 X _ t @ y b.m L C V.0 W.: * X T ..~ Y U.q G D G G G G D G }.G G G P ! G G G G G G G G ",
"0 2.0 0 3 0 9 3 0 t ).G 3 < 5 < 1 > > 0 (.. o.p N v.| : u Z @Xl * ; * = u q l Y [.f k 2 3 > < < 9 D ].> 0 9 >  X X3 9 9 1 1 1 0 ",
"].].].].].].+ + + O ].].].].]._.].].].].].X O.V 7.' X +X+X@X@X#X* * ; 0 ).].[.#X.X#X).)._.{.].]._._.].].).].].].].]._.].].]._.).",
"E L L G G G 2 l ! y G L G L G G e E ! G W @ *.W Z K X.z *.$.*.z * > * @ B.&.$...$... .....L 3.L L G L 3.G G E G E L L Z ].W ! _ ",
"L G G P G P C E G G y G G G G G _.W ! .. .@ O.) r ; o.$.$.$.$.z ] ; @ u K *...] Y  ...X... .3.E 2.G k > G G L P L L L C }.G L W ",
"L G G G G G C P G G G G L G G G  XG U  ...; n.! E 2.l.X.$.$.O.*.*.* @ z b *.X.] J '  .......! G G G y 0 G G G P G L G D  XP L G ",
"G G G G W G Z y G E G p G G G G oXG ^  .^ ^ : < q > Z X.O.X.{ *.@ ; ; * b ;.O.x O.@.*.~ ..X.z Z G G y 0 D 0 G G G G L C oXy G G ",
"^ ^ ( ( _.].{.].y.! ! ! ! ! U ). X%.&.&.&.X.&.X...$X$X$.;.$.] X.; r 7 # I.*.$.&.&.;.;.;.+X+X6.%.%.].}.D P ! P U ! ! G ].].G ! ! ",
"^ }.G G 5.5.U 5.5.! y.].y ! ! ( ^ 0.$... .%XV.*.=.B.=.B.K.K.;XK ,./ ; /.B.K.>.B.&XB.-.B.X.I.N.U.] ( ! W G G P t.2.2.! 3.P E %._ ",
"S ( G G 3 P G L G G w 0 G G G L ....Y ~ z z @.*.*.*.*.@.#.*.E.=.S * @ <.=.=.*.n *.*.*.>.&.z ..^  ...! P G t y 5.D D P G G G G G ",
"y ! G G D 1 G G +.G e 0 G D G G  ...Y v i z *.*.*.*.*.*.=.@.E.b * @ @ ` =.=.=.v =.*.;.=.*.&.%.X.....^ E G G w 5.C G G G G G G G ",
"0 _ P P G > G D G D e q G E y ^ ..p a z a z *.@.| *.*.#.@.} :X& M B B = c.=.=.b b =.*.=.*.&.v { .. . .G G 0 C 9.0 0 G D D G G G ",
"}.! 3 3 9 q 0 > 1 q ]._.e 0 e a l l v &X$XR.v b v b b v v *X& ! 6 S 4 / r.z n =Xi v K z z :XY.H Z z k k 9 0 f ].3 3 1 q 0 0 0 1 ",
"D G G G G G }.! ).G G G G P U.Y.g +X*.| @.*.#.=.m.OX*X>.6 '.E E Q '.# R ,.'.; *.=Xx OX@XX.X.B.&X' ~ +Xo.~ ].].W ].].G  X].G oXG ",
"! G G G G G ].y G G G G G ^ ^ Y s ^ *.*.*.*.*.=.% E ; a ,.M M M 4 <.4.M M M E * T.: / # X.X.X.X.X.X.@X~ ..D E W L E G > 0 G G G ",
"G G G E 2.G ].G w G G G G ^ ^ Y Y  .*.*.*.*.*.*.% E ,.r.w.u.<.q.* ;.d.q.w.q.r.u.,.,.E @ =...' X.X.X.+X.. .G E G G G G 0 0 G G G ",
"G G G G D G }.9 C e G G P  .^ T +X..*.*.*.*.*.=.*.8 H 8 6 M t N N R r p r r M % Y q q =.=.X.Y ' J X.%XJ ..^ G G G G G 0 2 D G G ",
"G C f D R 0 ].0 0 r F D C Y Y k +X] *.$.{ v ' { X.x *Xx M i.i.p.i.E : p.p.p.6 % *Xv v @.{ ' Z K Y z %Xk Z U Z t D D D > 7 > 0 D ",
"].).].}.XXV.].XX].].].]..X|.%X#X@X$X$X$X=X$X*X*X$X=X*XE.7 g.f.g.A.b.& Z.p.g.4 & *X*X=XR.$X$X$X@X@X+X+X%X+X_.{.].].].].].].].].].",
"U ! P G L G  XL L U G G $.8.J...&X*.*.>.x.=.*.=.x.=.;X=.r f.A.Z.H.b., ~.j.a.R $ -.=.=.@.=.m.;.O.$.........G G _._ %.W G G G (.(.",
"G _ ! G L L ].U ( G G P Q ......&X*.*.*.*.*.=.c.*.| *X#.[ f.Z.!.^.v.& h.D.f.z.*.-.c.=.=.=.$.X.$.;. .X.^ ..p G `.G E G G G G G E ",
"E L L G G G  XG L G G G E .... .@X..*.*.*.b =.=.#.} ;X` s.j.A.H.2XO., F.F.h.! x.=.=.=.=.=.X.&.$.;. .o.^ ....w ].G G G G G G G E ",
"G G G L L G ].G G G G G G ] ..l &XX.*.*.z [ @.*.=.n :X` G j.Z.G.2Xl.Q.^.D.h. .*.v *.=.=.=.:.a X.{ T ..^ T k y }.D G G D G G G G ",
"3.3.3.3.2.].{._ 2.2.2.3.P.N.0..XY.N.B.B.B.J.K.K.M.E.E.*X: ; j.S.S./ , !.j.j.r h x B.M.M.$X$XU.0.0.N.0.0.0.0.3.].5.2.2.3.3.3.3.t.",
"].{.2.5.W G L U G G 5.].G .X^ U...T.*.*.J.$XL.=.=.=.=.*X@ 6 j.h.k.x., h.h.8 % [ j T.*.=.=.=.' Y I.^ %XX. ...G G P G G ! _.C G G ",
"F 5.G L ! L G G L G G _.( ^ ^ T ..=.*.*.K K -.=.=.=.=.*.; R y p N x.6 V p V # *.[ c *.=.=.=.X.......%X..;.^ w G G G G 3 e G G W ",
"Z r.G L L G E G G G G C G X. .&.] %.*.=.z v =.*.` =.@.R S % @ 6 4 ,.4 $ ; ; N / q n =.=.*.X.6.....! %X ...~ 1 G G G G 0 0 G G E ",
"C 3.G G G G y L G G C D D U ~ H k ..$.K v v K =.x.v =.*.=.*.$XS R r.4 B t #.| z [ v =.*.*... ...^ ^ %X^ ..G D G G G G 0 1 0 G G ",
"S 2.0 0 3 > 0 3 3 3 ]._.0 0 p p l k Y -X$X$Xv v i v b v v >X*X$ 4 4 4 ; z z =X:X*X=Xv a a a p z u %X.Xk y 0 0 3 5 0 u._.0 0 0 3 ",
"].{.G L G W ].].F ].].].{.L X...Y.&X#X=.>.=.-.:.=.*.*XL.=XR.-.=X:XE = *X*X=Xc.-.:.*.*.*.+XI.&X+XI c I J Q G G }.].y ].].}._.].].",
"L L G %.P G ! G e U U L W G U _ %X......>.*.-.*.*.X.$X-.-.=.=.=.*.6 #.` $X*.*.*.=.*.:.....J Y o.^ ..^ ^ G ^ G P C G G G G G E G ",
"L E G L G G ~ G G G U G G G G 0  X%.......=.*.*.*.{ =X*.:.=.*.-.*.*.*.n R.*.=.=.*.^ .... .H &.^ ..^ P P G +.G G G q G G G U G G ",
"G G G G G G ( L G P G E G G G C ].D ..^ ......H *.O.&X*.-.*.*.*.=.*.*.v @X*....... .Z ....z &.! T Q P G G G G F 1 G G G P G P G ",
"G C > G G G (.0 G G G G G G 0 5 _.p ^ ^ ^ ^ ] ^ ..z &Xz =.z >. . . .Z z Y. ... ...J X.Z k l p y %.G G G G G 0 ].0 G F D 3 G G q ",
"]. X].].{.{.].]._.].C.t.d ].}.}.]..X-X-X-X&X%X&X&X%X&X&X&X-X&X%X&X&X&X&X&X%X%X%X&X%X%X&X%X%X%X-XOX_.].}.}.].].].].].].].s O _._.",
"_ }.G 0 D L L L U G G O W G G ! U E E ..k %X..0.%.0. .^ o. .&XX.%.^ .. .^  .....%X..o.Y  .^ P ! G L k G P 2.2.! G G P G h G G _ ",
"W 5.G q G G G G G P G ].G G G P G G G e 0 0 ! .. . .....N.^ %X............^ .. .[.%...X.G G G w 3 3 f G G G E G G G P G [.G G L ",
"G e.G C G G G G G G L ].G G G G G r 3 G r 0 E G G G L ^ G P %X~ A .... .P G G G .XD G G G G G D G D e G G G G G G G G G ].G G G ",
"D %.0 D G G e G G G 3 ].G L G G 0 G G D 0 q G D E G e G E r XX3 W G G E G E D 0 ].G e G G D C P G G 0 q D G G G G G G G }.G G G ",
" X_.q 0 0 0 0 0 0 y.{.].0 0 0 e 0 e t ].].].0 0 0 0 r e 0 ].].r 0 e 2 2 > 0 t.}.}.0 0 t t 0 0 0 f ].].0 0 r 0 0 0 q e  X].0 > 0 ",
"! W L L L G ].W }.U G P ! G P _._.F ].W U G P G L D ).C ! U L G P G 2 d d ].G U ! ! ! U P ]. X}.G E P P G G P ].u.G ].].1Xt.]._.",
"E L L G L G ].L L A L L G L G L t G G _ G U G G G t  XG G G P G G G G G O G G G ! G ! L G e o.E P P G U G ! ! ! e E L <X<X<XL G ",
"L G U G W G ].G G G G L G G G L  XG G G G G G G L e ].G G L G W L G G U 0 G L G L W G G G P G G G G L E G 3.G ! y G G G <XG G G ",
"G G G G L G ].G G A 0 L G G L G oXG G E G G G G G e  XD 0 G G G G L G D 0 L G L G L G G G G G G W _ G U U G G G q G G G G G G G ",
"0 0 0 e y 0 _.0 8 y t y y y y 7 }.0 e e e e 0 t 0 0 }.0 0 e 0 e r q 0 C 0 0 e 0 e 3 e w r  X0 e t e w 0 0 0 0 }.> q w 0 0 t q 0 "
};
