/* XPM */
static char *result[] = {
/* columns rows colors chars-per-pixel */
"64 64 229 2 ",
"   c #242917",
".  c #23251B",
"X  c #262B1C",
"o  c #292D1E",
"O  c #2C321D",
"+  c #2F391F",
"@  c #31361E",
"#  c #333C1D",
"$  c #272B21",
"%  c #2A2D22",
"&  c #2E2E2B",
"*  c #302F2D",
"=  c #2D3223",
"-  c #2E312C",
";  c #313424",
":  c #343A23",
">  c #31322D",
",  c #353B2B",
"<  c #383D2A",
"1  c #2F2E30",
"2  c #2F3230",
"3  c #333332",
"4  c #363933",
"5  c #3A3C35",
"6  c #373738",
"7  c #3C3C3B",
"8  c #403F3B",
"9  c #3A4716",
"0  c #3C4D15",
"q  c #36421B",
"w  c #3A451D",
"e  c #3C4B1B",
"r  c #3D5214",
"t  c #3F5119",
"y  c #374123",
"u  c #3A4423",
"i  c #3D4A22",
"p  c #3B432B",
"a  c #3F492D",
"s  c #3D4135",
"d  c #3F4833",
"f  c #3E413B",
"g  c #455A0E",
"h  c #414F12",
"j  c #414F1B",
"k  c #425415",
"l  c #465A14",
"z  c #485D14",
"x  c #43541B",
"c  c #46591A",
"v  c #4A5C1B",
"b  c #4A6314",
"n  c #4D641A",
"m  c #526A14",
"M  c #52651B",
"N  c #546C1C",
"B  c #596D1E",
"V  c #597619",
"C  c #5A741C",
"Z  c #5E7A1C",
"A  c #627E1D",
"S  c #424F22",
"D  c #41472B",
"F  c #424B2C",
"G  c #445322",
"H  c #4A5A23",
"J  c #485824",
"K  c #45542B",
"L  c #4A552C",
"P  c #4D5B2B",
"I  c #515E29",
"U  c #444C33",
"Y  c #454837",
"T  c #41423D",
"R  c #454A3C",
"E  c #465132",
"W  c #4A5434",
"Q  c #4C5B32",
"!  c #4C553E",
"~  c #525C3A",
"^  c #4E6122",
"/  c #4E612C",
"(  c #526524",
")  c #546A22",
"_  c #596D24",
"`  c #53642C",
"'  c #566A2A",
"]  c #5B6D2D",
"[  c #5C7422",
"{  c #5E7A21",
"}  c #5C732A",
"|  c #4F6730",
" . c #5C6D33",
".. c #566438",
"X. c #5C6D3A",
"o. c #5C7137",
"O. c #617724",
"+. c #627D23",
"@. c #647C2C",
"#. c #616F3D",
"$. c #617534",
"%. c #637B31",
"&. c #697E33",
"*. c #62743A",
"=. c #677A3C",
"-. c #3F4241",
";. c #444543",
":. c #484747",
">. c #464944",
",. c #4A4A46",
"<. c #4C4D4B",
"1. c #4E5444",
"2. c #4A5841",
"3. c #4E514D",
"4. c #525343",
"5. c #535B41",
"6. c #51534E",
"7. c #555A4D",
"8. c #585C4B",
"9. c #4E4F50",
"0. c #505051",
"q. c #555555",
"w. c #585757",
"e. c #575856",
"r. c #595956",
"t. c #575758",
"y. c #585759",
"u. c #565959",
"i. c #5A5A59",
"p. c #5B6643",
"a. c #586547",
"s. c #576846",
"d. c #5C6A43",
"f. c #5A634B",
"g. c #5C6357",
"h. c #626F46",
"j. c #647342",
"k. c #687945",
"l. c #636557",
"z. c #61635D",
"x. c #646A5C",
"c. c #6A7654",
"v. c #5F5E62",
"b. c #605F60",
"n. c #636463",
"m. c #696B69",
"M. c #706F6F",
"N. c #6E7067",
"B. c #6F7070",
"V. c #747373",
"C. c #797978",
"Z. c #64861B",
"A. c #64821D",
"S. c #69861E",
"D. c #6B8B1E",
"F. c #708F1F",
"G. c #6F911E",
"H. c #72931E",
"J. c #7A9C1F",
"K. c #7AA21E",
"L. c #658322",
"P. c #698523",
"I. c #678823",
"U. c #6C8B23",
"Y. c #66822A",
"T. c #6A852A",
"R. c #668929",
"E. c #6D8B2A",
"W. c #718E25",
"Q. c #71862C",
"!. c #728D2C",
"~. c #6E9024",
"^. c #6E9028",
"/. c #739324",
"(. c #789724",
"). c #769923",
"_. c #7B9C25",
"`. c #74932B",
"'. c #79952D",
"]. c #769929",
"[. c #7C9C2A",
"{. c #6B8433",
"}. c #6C8534",
"|. c #718A38",
" X c #789436",
".X c #7D9B32",
"XX c #7EA126",
"oX c #7EA22C",
"OX c #7FA131",
"+X c #738644",
"@X c #748C4B",
"#X c #819D2A",
"$X c #839D36",
"%X c #83A426",
"&X c #84AA24",
"*X c #89AB25",
"=X c #83A32C",
"-X c #88A72E",
";X c #86A92C",
":X c #8BAD2C",
">X c #8FB726",
",X c #8DB22D",
"<X c #92B52D",
"1X c #94B92E",
"2X c #98BC2C",
"3X c #85A332",
"4X c #87A934",
"5X c #8CAD32",
"6X c #91AF36",
"7X c #8EB232",
"8X c #8DB038",
"9X c #92B532",
"0X c #95BA33",
"qX c #9ABC34",
"wX c #95B53A",
"eX c #96B93B",
"rX c #9ABD3A",
"tX c #9BC135",
"yX c #9DC33B",
"uX c #A1C539",
"iX c #85924C",
"pX c #92AE4C",
"aX c #8A8F6C",
"sX c #81827E",
"dX c #87A075",
"fX c #A0C044",
"gX c #B0BD8F",
"hX c #B7C892",
"jX c #C7DA97",
/* pixels */
"} Z ' 9Xg c X pXA S.9X%X( x 2X( X ..T.U.<XA.:XU.l K.o |.F.S.0XU.N ).~ x u 6.6.U..X_./.:X;X) XX:XoXA.9X0X%XP.U.u ).<XqX0XU.1XC W.",
"XX8XV 5Xl k X A _.A.{ I c l V E.: 8.*.P.A v P.L.r.L.$  .<XL.rXH XXb (.#X5 q.q.q.>.D./.9X#X;.U L.qX,XpXpX{ U.A o [.L./.W.(.:Xm E.",
" .!.Z A l.l X A.A.{ +.k C [.A { . i.:.7 w.<.N.w.8 ] = @.=.T.~.y a S y : u q.q.w.;.z.q.XX>.,.l c L.L.Y.{ uXU.E @ u P.q.M c w.m $.",
"7._ g.K W c o # ' j s.c P.+.[ d X w.<.i.w.w.Y w.q.3 % q.3.e.q.e.6.r.q.3 % w.q.w.q.q.q.q.q.;.u r k L.{ o.z + n @ 5 e T q.q.w.B j ",
"3 * > > % o ; ; K < X X x = $ $   $ > 1 3 > 3 > * % o % > > 2 3 > > ; % o & 3 1 3 - 5 3 > : $ % $ x e % v ; o $ = - 2 3 * * * 3 ",
"X @ Y F L.% k.c.@.# o X 3.} -XuXyX~.E.' . o o I.#X$X<X:XW.u w o @.9X7 f |.W.D.,.o @ '.: [.=XX x [ $ % $ $ = L.v c.7Xu = o o Q.+X",
"<.;.3.Z.<X%X*XS.=Xx ; U :X:X/.+._.=Xm L.<.o j.J.:X9XF.S.&X%.3 O D.<X1X&X:XQ.S.F > 3 @X(.P.`.9XD.5X#XO *.XX=X).9XL.9X] S.= q.<X%X",
"q.7 H.Z.7.! c k ) A.> e.D.(.+.P.R.L.U.L.,.o o.<.6.>.q.v.O.i.3 @ A.&.W._ P.L.q.A 3 , q.q.U.@Xf U.<.S.- +.A.=X7XT.U.=XP.! , r.q.q.",
"w.T 7 r.<.q.w...q.q.3 w.w.R q.w.q.s.] q.3.o q.e.X.3.q.,.i.q.3 O ) I ] ' ) J q.>.2 - e.q.f y.<.q.,.:.; ; a.A.3.l x G I.u p 5 q.q.",
";.G 5 3 ;.>.1 ;.5 & ; , >.>.>.;.3 ,.,.7 - o 3 >.>.> o.>.5 > & O > : 5 < i , >.+Xo O 7 >.3 5 3 5 T 3 = o = 3 4 ; : > q a o 3 3 ;.",
"(.; o 3 % 7 o $ o O o @ fXo j.o o u ( & $ [.E.w [.) V } <X,X*XO /.D.= X $ [.XXH.d._.$ D.- o $ J p j &X# l.} # @ 5 = W.= o I ; % ",
"W.U.q.T M.q.> . L.L.<X9X2X1XD.U.o %XT.T.,.'.>.W.:XY.% ^ -XtX+.D.qXqX,X/.o qXfX/.(.U.1XD.&Xy.O.,X<XU.uXA 1X7X9Xu +XZ.0X_.2XtX/.G.",
"! 7.q.0.q.q.3 X v W.!.0X/.U.0XC o W.w.U q.e.,.a.<.n   Q T.A (.D.(.9X/.o `.L.F.i.j./.)./.i.q.[ P.9X0X0XS.W.<XU.q U.6XrXP._.M Y.V ",
"q.q.8 0.B.q.3 . l ( S.W.L.[.C l X `.y.q.q.q.q.q.i.q.= a t Z A.A.C =XA x * ,.:.q.0.].P.r.0.<.j c +.g l S.l W.k O 8 L W.D.e.~ ! z ",
"q.;.w.q.7 3.= X : a e h $._ x j $ 7 q.q.y.q.f q.e.q.X , G C 9 e X.2.& # % q.q.w.q.q.w.q.i.;.j 9 j l h g 9 o N # 3 : < j > q.5 8 ",
"> * 3 * & > L d.o o x : o o w X X > > & > 2 3 = = $ $ O $ e V k $ $ e X % & * * > 3 1 3 * % o X S X X o k = o o o = & 3 % & % o ",
"( O ] ) 2XS./.uXc.d.= X I.U.R.0XtX9X0XF.0 o U.qXqXuXeX;XL.$ o e ^.G.I $ P.^.U.^.O $ 0Xr.7.*.<X*XT S.o X . [.#X/.6 iXsXC.q.gX+.[.",
"P =X=XU./.6.q.A @.7.5 E.U.R.U.].P.7X7XA.L.W (.:X,XL.L./.;XU.o 2.P.L.D.>X/.+.U.O.x @.yXtXU.%.W.:X%X>.@ q.R.w.q.q.3 6 7 w.i.w.m. .",
"<.~ 7.r.q.i.w.0.q.q.7 P.W r.E.X.E.@.$...4 c v ) C o.D._.P / $ i.&XM [ | L.[  .9.X L.A.`...o.! $.] w.o q.q.w.q.q.6 q.q.q.w.q.q.q.",
"> > w.q.q.q.w.q.q.>.7 5 5 7 e.i.q.q.e.q.> F q.6.0 e.[ S.6.q.$ 5 5 u.q.t.q.f 3.q.o s 4 5 ' r.5 q.q.;.$ q.q.y.q.% 1 q.q.q.q.q.q.; ",
"3 % * 3 1 * 3 * 3 & & 3 > * 3 3 & 3 & 6 X $ 3 > : (.<X= & > $ ; 4 < > > 3 1 & > o o ; 3 5 > , > > ; X 3 > 3 3 % $ 3 & * 1 * > 3 ",
"( o T.L.O = G S i T.rX; }.7.) O o $ P eX ..Xo o = o O ^ 6XQ qX9XC @XQ q % ; 4.|.o.$ $ o $ H * $ % $ X o X = &.P % /.% o % o o o ",
"[.wXP.7XY.@.o j.l.+.qXrXqXrXA.I.o V.P.S Y H.q.8.M.6.o P.P.qXH.H.U.~.U.c N J.U.P.T.U.U.E.u f i.3XpX#XX 4 ].x./.[.U.c.5 5 ; : q.L ",
"w.[ q.=.!.~ o .X@X[.P.x.T.A Q.[ o q.L e.,.T.T.M.q.w.@ 1.+.P.U.P.D.U.U.3 ^ r.e.0Xi.f w.w.q.>.OX$XC.aX> 5 w.r.*.h.i.w./.3 5 8 w.V.",
"y.>.q.i.q.i.$ '.P 7.q.M >.7.g.q.o u.e.i.q.q.-.q.w.0.o Y x { j v Z N P.= |.i.y.+.5 q.q.w.q.>.w.q.>.e.3 3 q.q.q.q.w.r.e.3 4 <.q.i.",
"y.7 y.y.q.q.o v E >.e.e.y.v.w.9.$ u.u.e.w.w.q.q.w.& o } ,.F q.q.{ R > > * q.w.6 q.q.q.q.q.>.3 q.q.q.- 3 w.y.q.i.q.q.q.3 3 >.q.q.",
"- 3 3 > < : o $ : $ = ; ; n ; % = 5 > ; * % < _ q U.,Xo ; = - ; > & 3 5 $ 3 > > - - > - * X * ; ; o X + : , ; $ % = : o o O : = ",
"; g.7XV S.U.,X].{ K , X ,.*.].7X+...@X5X( X ].[.].[._.wXS.R.O [ o.&.T.f. X=XS.o } _.d.,X,XK ) U.:XqX:X7X9X:XL.y o 5X:X[.].qXU.Y.",
"w ;XL.W.S.5X6.P. .[ , 5 T.U.U.U.v.q.] / * j.B (.L.,XI./.0X7X= f @.7.N.q. X0Xe.> r.e.U.%X2.) } U.yXA.,XA.Y.U.D $ [.9XU.P.9X0X/.D.",
"O ;X1.n.T q.q.u.3.5.3 i.U.P.H i.q.q.0.6 6 h ! +.U.|.K ;X^.A.o 3 T q.q.w.w.,.6.6 i.q.w.e.q.} ^ } b z m { L.P.y = ( n L.9XU.r L.V ",
"= 6.-.q.q.w.w.q.q.7 & q.q.w.6 q.q.q.:.q.& j  .l c   ` N c t $ = 4 > q.i.m.r.w.o 6 i.q.y.7 3 = N x r [ R m # F o u n x F c c R.U ",
"O = > 3 3 3 3 3 3 & 3 * 3 1 3 3 3 3 * 3 $ o S o U O = y O a E.U.> 3 > * % o 8 o 3 3 - 6 6 X o = ) , = 9 X H o o X a u o $ o ) = ",
"'.5Xv &.: 3.$ <.m.gXq.6X<.0.  q.X c.5X=X-X3X'.=X[.o o u R.P.U.U.9XW.w # ` q.q.i.o g.:X4XE.Q 6X3X4X=Xo X [.9Xk.5XyXpXU.% % qX< T.",
"^.P.@.w.6.<.$ :.9.y.w.q.r.'.9X:.X y.w.z.i.r.i.0.q.D.% 7 5 rX+.A.A.8.r.# @ q.y.y.O 9.L.u e e.i.w.8 #.o D.U.6.{ E.Z Z.~ = 3  .n.P ",
"i.q.w.w.w.q.o q.6 t.q.q.w.q.;.<.o q.w.q.q.q.7 i.r.w.$ w.a Y q.+.q.q.q., q.i.u.6 % y.p q.q.<.q.w.q.q.o r.y.*.a.2.G.b i.3 3 v.7 <.",
"q.q.q.q.w.q.o 3 9.:.q.q.>.q.q.q.X q.w.q.w.6 q.q.3.q.$ w.<.q.q.w.q.q.q.3 q.u.q.q.$ q.q.q.q.y.7 q.q.q.o q.w.r.w.y.U 3.e.2 3 6 q.q.",
"q.6 <.9.q.* o > 1 3 0.0.6.0.6.* X q.0.6.* 6 0.q.6.> o 3 3 q.3 q.6 <.q.- 7 q.q.6.O - <.9.0.:.;.0.0.3 o <.9.q.<.9.q.q.6 > ; 3 9.q.",
"E.E.@.$.o u o o & 3 a.$ o ; W.= u : J % L u %XW.$ = o = X o 6X$ = o O : @ /.N B '._.[.x.j O o . o o O o _.y U.O o % W.: > >., $ ",
"T.r.i.w.w.q.o 0X0X9X0X+./.#X9XL.o W.Q.]./.U./.`.`.f o V.[.P.<XyX0X_.|./.7 :X<.)._./.:.(.*XI T.).(.D.;X@.qX~.L.e ;.wX<X<X9X7 %Xi.",
"n.V.b.w.w.w.o #X}./.<X+.&X*X+.&.o W.<.q./.+.r.e q.i.= q.'.4X=X(.(.S.e.5 7 q.q.<.W.:.:.i.r.R E n qX9X:XdXL.wXx $ #XrX,.q.~ V.b.e.",
"q.i.q.q.q.q.$ '.i.`.U.+.>.i.w.q.I W.y.q./.7.q.6 y.q.X q.-.T /.U./.e.Y.3 -.q.q.:.0.w.q.q.7 ; N G L.+.+.V U.L.L # 3 u w.q.q.q.q.q.",
"q.w.q.q.7 3 o <.i.R w.T.q.q.7 3 $ w.w.q.q.>.q.5 q.q.o q.q.6 <.w.q.e.r.> 3 q.q.q.3 w.q.q.6.T $ N c V r k [ O O : 3 7 q.q.7 w.q.w.",
"; % ; > o o o % 3 6 3 o $ ; o o $ ; & & > & > ; = % . - o % : 3 3 ; % o O 1 > $ > 3 & & - - o = o X o u X o $ $ O = 3 3 3 = % & ",
"` $ y.i.9X0XqX].6.i.% O W.0X9X{.>X&XU.%X$ = [./.,X:X0X[.z I.X X S.(.V d./.C q.oXo > rXL.yXOX{ ].[.E.o $ L.f.` 7X9XL.J o   5XC =X",
"%.% q.q.T.+.$Xe.h.q.q.o 5.=Xe.B.8./.O.( z %  Xn ..G W o.).[ U.3 T q.Y.Z '.r.i.A : P 9XyXI._.^.=X].L.o O.@./.E./.x.I.q.3 9XqX[.Z ",
"' 3 0.7 q.<.6.q.w.q.q.$ l.<.<.q.u.i.f.' L > b.q.q.q.q.i.o.C 6 6 q.q.E  ...i.r.X.3 T `.I.+X/.oXr ..<.o 5 w.w.X.i./.) q.5 G g [.).",
"F 3 q.q.q.q.q.q.q.8 0.o q.<.7 7 q.q.q.s > 3 3 w.q.y.q.q.8.e.- 3 r.q.q.q.<.7 q.6 3 ,  .F E N +X! q.Y.= 5 q.q.w.>.i.e.q.3 ) H c V ",
"o $ % 1 3 & 3 * > > $ X > 1 6 - - - o o o ; > > - 3 3 3 3 3 = X 6 > > > 6 3 3 3 o X & 3 4 2 1 2 3 % O ; * 3 1 3 3 & 3 = $ $ $ q ",
"< ; o = [.; e # $ 7X9X0X9X0XqXo i e : 3X8X6X0X@.x x %X: [.7..X<.Q.i.[.e ; N.9XU.U.U.L.,XP.J 4 OX`.&X5X9XtX+ O = i u wX5XrX0XwX1X",
"U./.*XO.XXR H O oX+.<X0X9X0X].L.= W.j.[.'.-./.U.D./.X j.iX>.q.y.e.r.i.<.% i.T u.U.W I.3.<.$ U.L.qX<X5X9X~.,X,Xq R.A.A.A (.qX1X7X",
"U.U.qXz ( 1.= { h { OX].W.rXz l o `./.`.i.i.9.v W.W.o j.f.q.q.y.e.q.q.3 ; q.i.q.f L.L.>.<.;.9 k { 7XL.G.0XZ /.O L...r.P./.,Xb (.",
"6.Y.L.1.P <.$ L.) |.T./.W.k T.c X Q.`.,.u.w.{.N.w !.% r.y.q.q.7 e.y.q.3 < q.r.e.q.y.6 3 :.;.x k >.A.L.A.n [ r + C q.w.e.r.r.i.H ",
">.<.> u.> % & L + < k x x v ) % o  .,.q.A.a.q.v.P.6 $ i.e.i.q.q.q.q.3 & = 3 q.e.u.r.q.q.1 > x ; V } l V L O b % O e.y.y.q.i.3 = ",
"X > : y $ % O : q o $ o $ o o % % o =X#X:XO < '.%X7Xo o o o o = X [.= ).o O o X o = ; $ $ = $ O O X o q $ X $ $ # O O = X & = P ",
"8.m.E.`.h.f.qX}.`.9X,.o oX4X(.0X!.9X0XqXA @.D.W.E.<X5X-XXXO.o Z E.^.P.U.U.d.%...& o U./.%X%XU.U.N N $ n.g.Y.{ -XA.>XD.f + r.D...",
"6.f w.i.W.n.i.i.tX5.i.O } { D.,XA.[.U.7XU.`.T.M q.6.:XE.f.i.= u i.t E.J q.f.w.e.3 L.P.U.U.].A T.l t i e.q.>.q.d e.I.L.) = 7 e.u.",
"<.4 r.i.e.i.i.i./.h.m.o [ ].A <XC P./.{ o g.w.w.y.0.&X>.q.q.& q.q.q.q.7 6 q.y.q.3 e e l U.A P l r = p 7 q.e.q.q.e.L.>.7.$ > r.w.",
"> > 6 w.q.y.i.y.q.q.q.o }.M j l l G S c X O.i.i.y.7 y.9.q.q.& 3 6.q.q.q.5 6 q.q.3 c ; x t N x E P Y.4 4 q.q.e.<.e.r.w.q.$ 3 6 q.",
"o o o * ; & > = O X = o % o j % k = j $ X j _ , P > & 1 & o o o o w = - 3 > 3 1 % a O d = = o $ 4X= X O Y.1 - - - ; 3 = % ; > = ",
"%.rXo o a.@.o . !.rXrXeX/.C U...&.} f.W.0X5X3X#XO...X 7X} yXwX%X9XD.,Xo T @.A.rX7XtX&X| x x  X0XtX~.0X~.P.U.~.$ O oX,X9XjX0X9X&.",
"0XqXeX_.(.(.O R.7X<X<X9X0XL./.P.= S.%X<X9X^.6.[.}.4.s L.tXqXyX/.N 7XE.o q A.o.I.;X*X1XA.tXw %XG.U.0XA.XXI.A.A.J I.1X9XjXgXjXU.V ",
"L.P.A z ;X[.% l L.9XB x ~ A H } X D.x.+.9XN /.<.I <.X x U.n ].=XA.U.I.4 # T.p.;XS.].L.A.Z.q ^.U.%X).I.} oX[ a O oXU.I.S.hXC ).U.",
"0 k G x r B X a P.x e i r a.A.x X q.,.XXR y.F i.7 9.o w w D.G L.`.Y.' 4 $ r 0 k { { L.5.n N { N { V V C r i e O b c { x x } I.D ",
"o , 9 o X = $ X O q q 0 x x : = X ;.T %XE ;.T 7 3 % o = q # # y q y e = $ # J J # c t e q O = r q ' t q q O e o $ = s u u # R q "
};
