/* XPM */
static char *_9fea4ed802540a6bbab84a31f6ae339ZBbFCcd53ePVJtnJ[] = {
/* columns rows colors chars-per-pixel */
"64 64 218 2 ",
"   c #292C38",
".  c #292C3C",
"X  c #3A2F37",
"o  c #332E3A",
"O  c #3D2E39",
"+  c #2E313E",
"@  c #3B3237",
"#  c #33323C",
"$  c #3B353B",
"%  c #3D3A3D",
"&  c #412F38",
"*  c #443437",
"=  c #483837",
"-  c #43343B",
";  c #4A353B",
":  c #433C3D",
">  c #4B3C3B",
",  c #503E37",
"<  c #543D3C",
"1  c #5B3D3B",
"2  c #623F3D",
"3  c #45423E",
"4  c #4C423E",
"5  c #4F483F",
"6  c #53443C",
"7  c #5B433C",
"8  c #564A3E",
"9  c #5B4B3E",
"0  c #5B533F",
"q  c #684D37",
"w  c #63443E",
"e  c #644D3D",
"r  c #6C4C3E",
"t  c #704C3E",
"y  c #63533E",
"u  c #6B533E",
"i  c #61593F",
"p  c #75583E",
"a  c #2E3441",
"s  c #353541",
"d  c #363B44",
"f  c #373B45",
"g  c #3C3C43",
"h  c #473E41",
"j  c #364345",
"k  c #3C4246",
"l  c #36454D",
"z  c #3A454C",
"x  c #364C4E",
"c  c #394C4E",
"v  c #3C524E",
"b  c #354751",
"n  c #354E51",
"m  c #394D52",
"M  c #375152",
"N  c #3B5254",
"B  c #3E5956",
"V  c #3C555A",
"C  c #3E595D",
"Z  c #3E5A61",
"A  c #454241",
"S  c #4C4442",
"D  c #4C4C43",
"F  c #42484B",
"G  c #524341",
"H  c #584744",
"J  c #554C41",
"K  c #5A4B41",
"L  c #4A5249",
"P  c #5B5441",
"I  c #595746",
"U  c #404F52",
"Y  c #425455",
"T  c #475B57",
"R  c #40565B",
"E  c #425B5D",
"W  c #545B55",
"Q  c #614741",
"!  c #614D41",
"~  c #6C4941",
"^  c #724A42",
"/  c #7A4E46",
"(  c #655341",
")  c #6A5241",
"_  c #645B42",
"`  c #675B45",
"'  c #715541",
"]  c #7C5544",
"[  c #745A43",
"{  c #7C5D42",
"}  c #5D6247",
"|  c #44615F",
" . c #53695C",
".. c #5A705F",
"X. c #656345",
"o. c #6C6444",
"O. c #6C6A44",
"+. c #666C4C",
"@. c #686C4A",
"#. c #7B6146",
"$. c #766848",
"%. c #79754A",
"&. c #666A53",
"*. c #6A6F50",
"=. c #6A7459",
"-. c #767B57",
";. c #445C62",
":. c #456263",
">. c #4A6663",
",. c #4B6A64",
"<. c #4E6C6B",
"1. c #536B63",
"2. c #566E65",
"3. c #5B7465",
"4. c #597666",
"5. c #53716B",
"6. c #597669",
"7. c #5C7A6A",
"8. c #627665",
"9. c #657B65",
"0. c #697B64",
"q. c #637D6B",
"w. c #737E63",
"e. c #7B7F62",
"r. c #815C44",
"t. c #846344",
"y. c #8A6544",
"u. c #8D6946",
"i. c #846549",
"p. c #856B4B",
"a. c #8A6A4A",
"s. c #936B46",
"d. c #956B46",
"f. c #946E48",
"g. c #94714C",
"h. c #9C734B",
"j. c #9C7A4E",
"k. c #857652",
"l. c #9A7952",
"z. c #A2764B",
"x. c #A47A4D",
"c. c #A87B4D",
"v. c #A37D52",
"b. c #A97D50",
"n. c #7D825D",
"m. c #66816B",
"M. c #6A836D",
"N. c #798669",
"B. c #758C6D",
"V. c #79906F",
"C. c #7E8D72",
"Z. c #789070",
"A. c #898659",
"S. c #868A5C",
"D. c #8D915F",
"F. c #AE824F",
"G. c #B3864F",
"H. c #AD8351",
"J. c #A88559",
"K. c #B28551",
"L. c #B58A54",
"P. c #BB8D55",
"I. c #B68C5A",
"U. c #BB9358",
"Y. c #BC935C",
"T. c #848C66",
"R. c #8B916B",
"E. c #808E72",
"W. c #839374",
"Q. c #8A9673",
"!. c #8D9C76",
"~. c #8B9C7A",
"^. c #959E76",
"/. c #929F7B",
"(. c #AD8E64",
"). c #BB9965",
"_. c #95A176",
"`. c #94A17C",
"'. c #95A17C",
"]. c #9AA47A",
"[. c #9DA67B",
"{. c #9BA47C",
"}. c #9EA77C",
"|. c #A0A677",
" X c #A1A77A",
".X c #A0A67B",
"XX c #A4AA7E",
"oX c #A8AC7F",
"OX c #C18F55",
"+X c #C29357",
"@X c #C2955C",
"#X c #C5995C",
"$X c #C59D62",
"%X c #CA9E62",
"&X c #CCA264",
"*X c #CAA464",
"=X c #D1A565",
"-X c #D6AB67",
";X c #D5AC6A",
":X c #D8AE6B",
">X c #D7B06D",
",X c #DAB26D",
"<X c #D6B372",
"1X c #DAB572",
"2X c #DDBA76",
"3X c #DDBC7A",
"4X c #E1B770",
"5X c #E2BB75",
"6X c #E0BE7B",
"7X c #E1C27D",
"8X c #8EA182",
"9X c #94A280",
"0X c #9BA580",
"qX c #A6AA80",
"wX c #A8AB80",
"eX c #DDC284",
"rX c #E2C482",
"tX c #E1C884",
/* pixels */
"].].[.[.[.[.`.`.`.`.`.`.`.`.~.`.~.~.~.~.~.~.~.~.~.~.~.~.~.~.~.~.~.~.~.~.~.~.!.!.!.!.!.!.!.!.!.~.~.`.~.`.`.`.`.`.`.`.`.`.`.`.^.^.",
"~.].].[.[.[.`.`.`.`.`.`.`.`././.~.~.~.~.~.~.~.~.~.~.~.~.~.~.~.~.~.~.~.~.~.~.!.!.!.!.!.!.~.~.~.~.~./.`.`.`.`.`.`.`.`.`.`.`.^.!.^.",
"].].].].[.].`.`.`.`.`.`.`.`.`././.`.~.~.~.~.~.~.~.~.~.~.~.~.~.~.~.~.~.~.~.~.~.!.!.!.~.~.~.~.~.~./.`.`.`.`.`.`.`.`.`.`.`.`.`.^.^.",
"].].].].].].].[.`.`.`.`.`.`.`.`.`.`.~.~.~.~.~.~.~.~.W.E.E.C.C.C.C.C.E.E.Q.~.~.!.!.!.~.~.~.~././.`.`.9X`.`.`.`.`.`.`.`.`.`.`.`.^.",
"].].].].].].].[.[.`.`.`.`.`.`.9X8X8X8X~.~.~.~.~.C.N.` 6 *         .     8.N.W.~.!.!.~.~.~.~.`.`.`.`.9X/./.`.`.`.`.`.`.`.`.`.`.`.",
"].].].[.[.[.[.[.[.[.].{.{.`.9X9X8X8X9X~.~.~.~.w.G * * q , o         o o o   W C.~.~.~.~.~.~.`.`.`.`.`././.`.`.`.`.{.{.].].`.`.`.",
"[.[.}.}.[.[.[.[.}.[.[.}.}.9X9X9X8X8X9X9X~.~.=.> = = 6 u > * @ @         . o   F N.~.~.~.`.`.`.`.`.`.`.`.`.`.`.`.`.[.[.[.[.].].`.",
"XXXXXX}.}.[.[.[.}.}.}.}.{.9X9X9X9X~.9X9X~.&.> * * e y.p 8 * @ @ .         .     k N.~.~.`.`.`.`.`.`.`.`.`.`.`.`.{..X.X.X.X.X[.`.",
"XXXXXXXXXX}.}.}.}.}.}.}.`.0X9X9X`.8X`.`.=.4 r f.x.H.I.L.z.h.{ y 4 .               f W.~.`.`.`.`.`.`.`.`.`.`.`.[.[..X.X.X.X.X[.`.",
"XXXXXXXXXXXX}.}.}.}.}.}.}.}.9X`.`.`.`.`.J u L.<XeXeXeX2X,X=X%Xg.y.! #               F `.`.`.`.`.`.`.`.`.[.[.[..X.X.X.X.X.X.X[.{.",
"oXXXXXoXoXXX}.}.}.}.}.}.XXXX{.`.`.`.`.W > (.1XrXtXtXrXrX5X4X-XL.f.t.8 #             . W `.`.`.`.{.{.`.{..X.X.X.X.X.X.X.X.X.X.X{.",
"oXoXoXoXoXXXXX}.}.}.}.}..XXX{.{.{.`.`.g 7 ).3X7XrX7X7X7X5X4X-XP.f.t.u 4 #             f ].`.`.`.{.{.{.[..X.X.X.X.X.X.X.X.X.X.X.X",
"oXoXoXoXoXoXXXXXXXXX}.}..XXX{.{.{.`.=.s p $X2X7X7X7X7X7X5X4X-XP.z.y.{ y $             f Q.].].].}.}.}..X.X.X.X.X.X.X.X.X.X.X.X.X",
"oXXXXXwXwXwXwXwXwXXX}..X.XXX{.{.{.e.> . t.$X1X6X6X6X6X6X5X4X-X&XP.x.a.{ 4 .           + L Q.].{.}.}.[.]..X.X.X.X.X.X.X.X.X.X.X.X",
"oXoXoXoXwXwXwXwXwXXXqXqXXXXX{.{.`.I #   r.;X2X3X6X6X6X6X5X5X:X-X;X#XH.f.9 o             # 0.Q.C.].].].W.].C..X.X.X.X.X.X.X.X.X.X",
"oXXXXXXXXX_.[.XXqXwXwXqXXXXX{.{.=.> . . f.%X;X;X1X2X2X:X&XY.#X#X#XU.x.y.9 #             + 4.9.N.B.E._.M.W.M..X.X.X.X.X.X.X.X.X.X",
"R..XR..XQ.N.N.^.XXXXXXXXXXXX{.{.+.$   . h.z.f.f.Y.=X=XU.[ e t.s.y.y.{ e 6 @             + >.,.0.9.9.M.m.B.m..X.X.X.X.X.X.X.X.X.X",
"n.T.n.T.N.0.w.N.!.XXXXXXXXXXXX{.+.- . . ) y.u.' ' $X=Xa.6 { u.g.9 % % 6 8 $     .   .   . :.:.1.9.7.7.q.m.q.[..X.X.X.X.X.X.X[.`.",
"n.n.0.0.0.0.0.8.9.4.q.].XXXX{.{.G * * . # K #.@ q Y.&X[ ' v.v.$ # $ % K [ 6 #       . . . E R R >.7.,.7.>.7.]..X.X.X.X.X.X|._.!.",
"0.0.0.0.9.9.9.8.4.0.W.XX.X}.!./.> * O . y.x.U.l.x.*X$X' y.#X&XJ.y.t.H.K.d.8 #           . E C V :.:.:.:.:.,.m..X.X.X.X|..X[._.B.",
"0.9.0.0.9.8.T 2.>.8.W.}.N.T 4.4.# * . @ #XI.v.v.L.:X@X{ h.#XL.I.v.$X&XL.u.8 #           . M M V :.:.:.,.;.:.7.W..X|..X.X[._.V.B.",
"9.9.9.8.8.T M V C 1.N...=.Y ..4.# & . < &X<X1X1X#X>XL.x.L.>X2X3X3X>X+Xc.r.6 #           . M C ;.:.:.:.:.;.;.,.6.^.|..X[._.V.V.B.",
"6.7.9.:.;.V N V V :.V V  .T  .L @ @ . < OX>X1X1X&X3XL.c.L.:X1X1X,X&XK.y.9 @       .     . N B B B B B B B E E >.M._._.!.Z.B.B.B.",
";.;.4.;.Y R N c Y E V V N Y m @ @ @ . * P.>X1X>X&XeXH.h.x.:X,X,X-XL.h.[ 6 #       .   . . R >.>.7.6.6.6.7.q.q.M.M.m.m.m.m.9.E E ",
";.;.;.;.E E Y N E ;.R V N M m $ @ .   $ x.;X:X:XJ.).[ ' u.:X,X-X+Xz.t.y 4 #     . . . . . j l b n n n M M C >.7.7.5.5.;.M z l l ",
";.;.;.v T E ;.E E ;.N c x x x @ @ . .   { +X#X:XJ.! 4 9 g.-X-X#Xx.s.p 9 4 #     . . .     . l b n n n n n n n n V ;.;.;.n l l l ",
";.;.;.v R ;.;.v R ;.E M x x x x . . . . ! h.P.:X>XY.I.L.H.K.K.K.x.u.p 9 6 @     . .       . l l n n n n n n n n V ;.R l l l l l ",
";.;.;.v v R ;.N v c x x x x x % # . . . > b.U.g.{ y.y.] ( ! K.G.x.s.[ u 8 #     . .         l l c n n n n n n n V ;.;.C M l l l ",
";.;.;.N Y m m v c x x M x x x @ @ . O O o h.P.$X&XK.z.d.v.H.K.K.z.u.[ 9 % .   . .           N N V V V V V C C C C C V m M l l l ",
"T Y Y c c z z z l l l c m x x @ @ O & o   : h.#X:Xj.y.y.c.H.K.x.f.{ 9 6 $ .     . .         V Y C N m M M N Z Z C m m l l l l n ",
";.E c l l l z c m m m m M c c @ @ & o .     h x.&X:X$X$XL.H.x.s.[ 9 8 : # . .               V 4.:.;.>.M n n Z C m l l l l l l l ",
"N ;.R l l l l l m N c m E | | @ @ & . O .     : J.;X:X:XI.z.t.) 9 6 h #     . . .         . V 1.4.6.,.1.V n m n N C N l l l l n ",
"v ;.;.R m z l l b x l M V E 4.Y @ o O o         h g.v.v.p.) e 8 8 A s # # .         . . .   a 4.7.,.5.>.C n N V C C N V n n l M ",
"v ;.;.N v c c m m m 1.4.7.7.m.q.@ O o O     .     # $ S A A h A g s g g g + . . . . . .     . >.1.;.:.;.C n m m m m x M x M l l ",
"c ;.;.;.R | >.>.:.:.T 1.5.m.M.M.@ o . .           . . : g s s s s : A K 9 : . . . . . . . . . f E ;.;.C m n x m m m x l l l l l ",
"m m R ;.;.;.;.;.<.5.q.q.q.M.M.M.% . . . .   .     . . ( ! 8 4 4 4 S K y ( 8 #   . . . . . . . f ;.;.;.;.;.E N l z z l l l V M m ",
"V <.<.<.5.5.1.1.7.q.q.m.m.M.M.M.q.+ O - .         . . i.s.u.y y y y u t.{ e #   . . . * $       f x x n | :.>.>.>. .X.o.X.O.*.D ",
"<.5.q.q.&.I X.D D } k L W L 6.f >.$ . . & .     . . . a.K.g.u.{ [ t.t.y.u.[ $ . . . > 9 $   . . . f f f k :.m x Y X.A.A.o.v z D ",
"7.7.q.9.@.I D D I A s % % D F $ + . O . O .       . s ` H.K.h.s.u.y.s.x.c.u.> @ o - u > $ . . . . + x x x M n l U O.A.A.U c k D ",
"6.z @.O.I D A I O.S + # # % A $ . . . . O .       ! l.p.v.L.H.H.c.c.F.L.K.z.t ; $ > u - . . . . . + E ,.4.7.w.0.-.S.A.o.c v k D ",
"Y g O.X.O.I P o.P f a + + # 3 # . . . O .     - a.&X;X=X&XL.K.K.H.L.#X#XL.z.t ; * y e -           . a z U q.N.N.N.+.*.n.v k D k ",
": 9 %.` ` J X.O.J # a % + $ A # . . O . . . ; J.;X>X>X>X-X:X:X%X%X%X&X=XP.f.7 * ; 9 9 @       . . . . . a Y *.D.D.S.n.O.k j k k ",
": ! %._ O.O.O._ I A s % + 3 A . . . . . . ~ I.-X>X>X>X>X>X>X>X,X,X,X>X&XP.d.t > @ 6 7   .         . . . . a Y 2.*.=.-.T.n.X.c k ",
"6 A -.o.-.%.O.I I I 3 3 : : . . . . . - 9 z.;X>X>X>X>X>X>X>X>X,X,X,X=X&XP.d.7 ; $ - -       9 i.9 8 : . . . # S *.S.S.S.+.@.+.D ",
"6 : ! A.%.$.O.O._ I P 3 : . .       $ r r U.-X>X>X>X>X>X>X>X>X,X,X=X&XP.G.y.< @ # $ $ 6 { a.[ 6 : % . . . . . o > 6 _ o.-.S.S.o.",
"7 : 7 9 A.k.A.%.o.o.0 : . . . . . * r x.u.;X>X,X>X>X>X>X>X>X>X,X=X&XP.G.z.y.< $ > a.j.g.) K { ' i.i.< @ . . . . o * * * ; ; } @.",
"7 7 7 7 7 7 $.k.%.O.4 . . . . . . < K.L.=X,X,X,X>X>X>X>X>X>X>X>X=X&XP.K.z.y.r y u e e u J.J.g.9 * $ . . . . . . . o * - * * ; o.",
"7 w 9 9 w Q Q Q [ ( + . . .   $ o 7 $X5X6X7X7X2X,X>X>X>X>X>X>X>X,X=XP.L.K.h.t.` 0 u.x.g.8 @ @ $ .   . . . . . . . . @ ; * * - ; ",
"^ r.i.i.#.p.p.$.K # . . . # . . - h Y.rXtX7X5X,X:X-X>X,X,X1X,X,X,X=X&X#Xj.o._ ( 6 > = # . . . .     . . . . . . . . . @ < 1 1 ; ",
"/ r.~ w w w H h # . . . $ . . + : 6 { $X:X3X1X>X&X>X3X7XtXrX2X,X>X;XY.$.i P P : % $ . . . . . . . . . . . . . . . . . . ; < < < ",
"/ ^ ^ ~ ) Q h # . . . # # . . $ 4 G H H r.J.).J.&X2X7X7XrXrX5X>X).p.` _ 8 : $ . . . . . . . # @ @ $ . . . . . . . . . . o ; - * ",
"/ / r.r.r.] : . . . . # . . $ : - K < ! G H < H a.l.J.J.J.J.J.l.o.( P K S $ . . . . . # $ $ 4 : @ $ . . . . . . . . . . . $ $ $ ",
"2 ~ ^ ^ ^ ~ - . . . . # . $ h 4 4 6 4 4 4 6 4 8 < 8 < > > > 8 P _ ` ` : . . . . . . # : 3 4 A : : : # # # # . . . . . . . @ o o ",
"1 1 w 1 1 1 $ . . . # . . s 8 : P 4 8 $ 5 4 8 9 8 S : $ $ : 8 J P J # . . . . . . . : : 4 A S 4 y 8 4 * @ # # . . . . . . * ; ; ",
"2 w w w w 7 $ . . . . . . $ 4 6 6 8 @ @ 3 K 8 6 8 : : $ # 4 4 3 $ . . . . . . . . % : @ # A i i 8 > 6 @ $ . . . . . . . . . < 7 ",
"' [ [ #.#.! $ . . . . . . $ $ ( : % $ $ : 9 : 4 4 $ $ # : 4 g # . . . . . . . . . $ $ . # 4 i i > = @ @ . . . . . . . . . . - > ",
"i.k.k.a.a.K o . . . . . . $ $ 4 % #   $ A 3 $ : % # # : 8 A $ # . . . . . . . . # . . # $ > i 9 > @ . . . . . . . . . . . . . : ",
"i.a.i.a.[ % . . . . . . . $ $ # g .   $ : $ $ $ . . : 6 4 % # + . . . . . . . % # . . $ = 6 y > $ . . . . . . . . . . . . . . 8 ",
"{ i.i.i.G . . . . . . . . # $   $ .   $ # $ # .   @ 6 4 % # + $ . . . . . . . $ . . + $ 4 y 4 @ . . . . . . . . . . . . . . . % ",
"H P ( G $ . . . . . . . . . $   @   . $ . # # .   * : % $ # $ # . . . . . . . . . . $ % > 4 . . . . o . . . . . . .   . . . . . ",
"F F s . . . . . . . . . . . +   .     .   . . . @ % $ $ $ $ + . . . . . . . . . . . $ @ * # . . . . o . . . . . . . . . . . . . ",
"F s . . . . . . . o   . . .     . .   . . . . . + $ A % $ # . . . . . . . . . . . . # $ # . . . . . . . . . . . .   . . . .     ",
"s . . . . o # o X X o   . .   . . . . . .   . . # 4 8 % # . . . . . . . . . . . . . . . . . . . . . . . . . . .       . .       ",
". . . . . . # X @ @ @ o   .     . . . . .   . # 4 8 : # . . . . . . . . . . . . . . . . . . . . o . . . . . . .     . . . .   . "
};
