/* XPM */
static char *a988aab897334ba9a01e0701ba3514b0vSg2b1SOXzp9HumO[] = {
/* columns rows colors chars-per-pixel */
"64 64 248 2 ",
"   c #31343B",
".  c #264F3E",
"X  c #5D4038",
"o  c #705235",
"O  c #2D3947",
"+  c #343C4A",
"@  c #254B48",
"#  c #295549",
"$  c #274E54",
"%  c #3A4B50",
"&  c #2A5354",
"*  c #2C5757",
"=  c #335A56",
"-  c #32634E",
";  c #366558",
":  c #3A765D",
">  c #2D5766",
",  c #335C64",
"<  c #386866",
"1  c #3D7A64",
"2  c #326D76",
"3  c #4A5058",
"4  c #72574A",
"5  c #4C6E57",
"6  c #597A57",
"7  c #6B7354",
"8  c #505563",
"9  c #457A64",
"0  c #51776E",
"q  c #6B7771",
"w  c #A06D3D",
"e  c #8D6F4F",
"r  c #997459",
"t  c #A97A59",
"y  c #B97F5C",
"u  c #927261",
"i  c #46835E",
"p  c #68855B",
"a  c #758A56",
"s  c #7B9659",
"d  c #448263",
"f  c #4A8866",
"g  c #548967",
"h  c #57936A",
"j  c #57956F",
"k  c #59877A",
"l  c #6B8C6F",
"z  c #799969",
"x  c #679478",
"c  c #789A78",
"v  c #66A275",
"b  c #B38E3B",
"n  c #E2AF31",
"m  c #948E52",
"M  c #859A5A",
"N  c #B28959",
"B  c #8AA257",
"V  c #8CA45C",
"C  c #97A655",
"Z  c #9CAB54",
"A  c #93A55B",
"S  c #94A95C",
"D  c #9BAC5C",
"F  c #A5AA4D",
"G  c #ABB54C",
"H  c #B6B54D",
"J  c #A4AC54",
"K  c #A9AA57",
"L  c #A2AD5B",
"P  c #A4B25C",
"I  c #AAB458",
"U  c #ABB45C",
"Y  c #B5B858",
"T  c #B3BB5C",
"R  c #869B67",
"E  c #829B76",
"W  c #929671",
"Q  c #B1926B",
"!  c #8DA463",
"~  c #8AA668",
"^  c #93AA63",
"/  c #9BAD63",
"(  c #96AA68",
")  c #94AC6C",
"_  c #9DB163",
"`  c #9DB26B",
"'  c #89A577",
"]  c #96AC74",
"[  c #9BB376",
"{  c #A3AC67",
"}  c #A4B364",
"|  c #AAB564",
" . c #ACBA64",
".. c #A3B46B",
"X. c #A8B76B",
"o. c #ABBA6C",
"O. c #B3BC64",
"+. c #B6B769",
"@. c #B3BD6B",
"#. c #A9AB71",
"$. c #A3B673",
"%. c #A5BA73",
"&. c #ABBC74",
"*. c #A5B77A",
"=. c #ABBD7C",
"-. c #B4BE75",
";. c #CDAE68",
":. c #D3A860",
">. c #BCC25C",
",. c #BAC265",
"<. c #B5C16C",
"1. c #BAC46C",
"2. c #ADC07A",
"3. c #B4C273",
"4. c #BBC474",
"5. c #B5C37A",
"6. c #BBC579",
"7. c #C4C765",
"8. c #C6C778",
"9. c #48758A",
"0. c #547D84",
"q. c #747D81",
"w. c #598587",
"e. c #5C8997",
"r. c #658986",
"t. c #6B9385",
"y. c #769A87",
"u. c #6F9094",
"i. c #7CA286",
"p. c #71A492",
"a. c #4E89A1",
"s. c #6E94A3",
"d. c #7599A8",
"f. c #6C98B6",
"g. c #769BB7",
"h. c #7BA5A4",
"j. c #7DA3B9",
"k. c #6E99C3",
"l. c #739EC8",
"z. c #7BA3C6",
"x. c #7BA5D1",
"c. c #8A958B",
"v. c #969A99",
"b. c #AC998D",
"n. c #87A687",
"m. c #95AC88",
"M. c #99B487",
"N. c #8BA698",
"B. c #99A899",
"V. c #99B493",
"C. c #A7BB87",
"Z. c #B5B18D",
"A. c #A7B896",
"S. c #899CA5",
"D. c #86A6A9",
"F. c #97ABAA",
"G. c #95B2AB",
"H. c #87A7B9",
"J. c #8CACBC",
"K. c #94ACB6",
"L. c #95B3BD",
"P. c #9AB7B8",
"I. c #9BB6BC",
"U. c #A7ACAB",
"Y. c #B0B6AB",
"T. c #A5BABB",
"R. c #CAB094",
"E. c #CDBDAB",
"W. c #B8C486",
"Q. c #B1C699",
"!. c #B6C6B9",
"~. c #C7CC8A",
"^. c #C6CAB9",
"/. c #CED2B0",
"(. c #E6DCA4",
"). c #85A8C6",
"_. c #8BADC4",
"`. c #8EB1C9",
"'. c #93B3C4",
"]. c #9DBAC3",
"[. c #98B6C8",
"{. c #88ADD2",
"}. c #8CB6DC",
"|. c #8EB8DE",
" X c #98B8D5",
".X c #93BBDE",
"XX c #A4BBC4",
"oX c #ACBFC9",
"OX c #8FB9E0",
"+X c #94BDE1",
"@X c #98BFE2",
"#X c #9DC2D8",
"$X c #A6C3C9",
"%X c #B6C6C7",
"&X c #A5C4D4",
"*X c #B5C9D7",
"=X c #BCCDDA",
"-X c #BCD0DC",
";X c #97C0E4",
":X c #9BC2E4",
">X c #A1C6E4",
",X c #A4C9E6",
"<X c #ABCDE6",
"1X c #A9CDE8",
"2X c #B4CEE2",
"3X c #AED0E7",
"4X c #B4D2E6",
"5X c #BBD5E5",
"6X c #BED9E6",
"7X c #B4D3E8",
"8X c #BAD6E8",
"9X c #BDD9E9",
"0X c #CAD2CA",
"qX c #D0D3C8",
"wX c #C2CFDA",
"eX c #C9D4D3",
"rX c #C5D2DC",
"tX c #CBD5DD",
"yX c #CED8DE",
"uX c #D6DAD4",
"iX c #D3DBDD",
"pX c #DADEDE",
"aX c #E2DCCF",
"sX c #DDE1DE",
"dX c #E3E4DD",
"fX c #E8E5D8",
"gX c #EDEADD",
"hX c #F1EBD4",
"jX c #F3EDD9",
"kX c #C4D6E1",
"lX c #C4DBE6",
"zX c #CAD9E3",
"xX c #CBDCE4",
"cX c #C3DCE9",
"vX c #D4DDE2",
"bX c #D9DFE2",
"nX c #CDE1E7",
"mX c #CDE2E9",
"MX c #D5E1E5",
"NX c #DBE2E3",
"BX c #D2E4E9",
"VX c #D9E4E9",
"CX c #E3E5E2",
"ZX c #E7E8E2",
"AX c #E5E9E4",
"SX c #EBEAE2",
"DX c #F2EEE1",
"FX c #F4F1E4",
/* pixels */
".X.X.X.X}.}.}.|.+X}.}..X+X|..X.X.X.X.X.XOXOX|.|..X.X.X}.}..X.X.X.X+X.X.X.X+X+X+X+X+X+X+X+XrXpXdXsXtXrXrX=XrXsXdXdXiXiXsXCXpXiXyX",
" X+X|.+X+X+X.X.X.X}.+X+X+X+X.X+X|.+X.X+X|.+X|.|.|..X.X.X+X+X.X+X+X+X+X.X+X.X+X+X+X+X@X+X:X*X-XpXdXyXrX=X*X=XyXrXpXsXiXiXvXiXiXyX",
">X.X+X:X@X}.>X:X+X|.|..X+X.X+X.X|..X@X+X|.|.|.|..X|.+X;X}..X.X.X.X.X+X+X.X+X+X+X@X@X@X+X+X;X<XrXrX=X<XrXtXtXwXrXwXrXtXbXiXiXiXpX",
"+X+X:X:X+X+X+XOX+X+XOX|.+X+X+X|.+X+X+X|.|.|.#X$X&X|..X.X+X.X;X;X;X:X+X+X+X.X;X;X>X<X:X;X;X;X:X,X>X1XxXDXSXiXrXrXwXrXrXiXyXtXiXpX",
"+X+X+X+X+X+X+X+X+X+X+X+X+X+X+X+X+X.X.X&X%X(.(./.Q.m.!.#X+X+X+X;X;X:X+X:X:X>XkXkXsXCX2X:X:X:X:X:X:XtXiXyXdXyXiXtXwXrXuXyXiXiXkX1X",
";X:X+X;X+X+X+X+X+X;X+X+X+X+X+X+X|.w./.(./.Q.i.f d h j i.$X,X+X;X:X;X:X:XkXZXdXgXDXDXDXkX2X:X:X>X2X5XyXrXyXtXiX-X2XpXsXNXNX5X:X:X",
"+X+X.X+X+X+X+X:X+X;X;X+X:X;X+X;Xe.2 y.M.x f f f f g f g j V.G.}.;X:X<XrXyXrXtXZXZXZXDXgXCX>X:X4XiXxXzXkXiXpXkX,X<X2XkX5X7X1X:X:X",
";X+X+X;X+X+X:X:X:X:X>X;X:X;X;Xs.2 2 9 9 h f d i h h ~ M.x v y.:X>XkXgXrXtX=X=XrXiXiXdXjXvX:X:X>X,X>X>X,X1X1X,X>X:X>X>X>X1X1X1X1X",
":X:X:X;X;X+X,X:X:X>X:X:X;X;X).2 2 d d d 9 d d f h R W b.aXV.p.>X1XsXgXtXrXrXrX=XtXpXgXgXNX1X>X1X,X>X,X,X,X1X,X1X,X1X1X1X3X1X1X1X",
":X,X,X,X:X:X1X:X;X:X;X:X:X;Xa.2 d 9 d d : 5 9 f a E B.R.:.C.G.,X2XNXvXyXrXrXrX=XwXiXZXFXSXdXsXZXMX<X,X,X1X1X1X1X1X1X3X8X7X7X1X1X",
":X,X1X<X1X1X1X:X:X:X;X:X1X.X2 1 d f d 1 : 7 h m b o o o o b :.qX2XzXvXpXyXrXrXrX=X-XxXZXgXSXgXgXDXvX<X1X7X<X3X7X1X<X7X3X7X7X3X3X",
"1X3X1X3X1X<X1X>X>X1X1X>X1Xj.; 9 g h d d d i a b X o e N o o n ;.1X5XNXdXvXrXrXrXrXrXrXiXgXiXpXdXgXzX8X8X8X7X7X8X7X4X3X4X8X7X3X<X",
"1X7X3X3X>X4X4X<X4X<X1X1X8Xu.9 d f g g d : h 7 m e e r t r w :.%X4X8XkXdXdXgXyXiXiXrXrXpXpXyXyXyXzX9X9X8X8X8XcX8X<X4X6XMXDXCXMX8X",
"3X4X7X7X7X8X8X9X7X8X8X9X4Xf d f f d h f i g g 6 g e y N Q a !.4X4X4XkXrXtXyXsXtXyXyXtXpXpXyXiXkXlX9X9X8XNXDXDXMX7XcXAXZXDXDXZXZX",
"9X8X7X9X8X9X9X9X7X8X8X9X8Xp.i g : g h f : f f 5 5 l N Q W h.8X8XxXvXkX-X=XkX=X=XrX=XrXtXzXxXcX8X8X9X7X8XNXSXDXDXZXAXbXNXCXZXgXDX",
"9X8X8XcX8X9X9X8X8X8X9X8X8X-Xk d : f h d : d d i 5 N.m.b.%X-X8X4X5XkX5X5X5XcXlXzXlXlXcXcXlXcXcX9X9X9XlXNXZXyXtXCXCXZXdXyXAXCXZXZX",
"9X8X9X9X9X8X8XlXMXSXZXMXcX8X$X: : f f i : 1 d u.u.q.g.K.aXgXxX6X6XcXcXcXcXcXcX9XcX9XcXcXcX9XcXcXcXcXxXzXiXNXbXvXtXNXvXkXwXrXiXpX",
"8X8X7X8X8X6XxXrXiXCXDXDXMX7X$X1 : 1 9 d : d H.j.z.u.s.oXhXjXhXdX8X6XcX9XcXcXlXxXcX9XcX9X9X9X9XcXcXcXcXxXiXvXzXrXwXwXrXtXrXrXiXpX",
"9XcXcXcX9XzXpXtXiXsXCXdXlXMXNXD.$XI.t.k : k P.H.z.l.q XXhXjXfXeX5X6X6X6XcXMXZXZXSXnXcXcXcXcXcXcXcXcXcXcXxXzX=X=XrXrXrXrXrXrXrXtX",
"9XcXcXcXcXzXyXvXvXvXiXZXNXNXSXxXcXlXcX6X*XK.P.H.).g.S.R.aXjXhX%XMXMXxXcXvXvXrXyXZXDXlXmXcX9XlXAXNXNXxXMXNXMXxXyXxXiXvXxXtXtXxXmX",
"6XcXmXcX6XxXzXrXrXtXtXrXvXcXxXZXNXxXMXMXxXI.G.d.G.K.S.N R.uXhXeXgXSXZXgXvXkXzXzXyXdXDXAXMXNXZXZXgXSXxXZXgXNXlXxXxXnXNXxXmXmXBXBX",
"lXMXlXmXcXlXlXxXkXzXzXxXlXcXxXCXSXSXZXAXxXG.K.d.N.B.u r Q J.%X%XgXgXNXNXZXtXyXtXyXvXZXDXDXDXvXiXvXbXvXvXbXZXBXmXmXmXmXmXmXBXBXBX",
"xXxXlXlXlXxXnXMXmXlXxXnXCXMXxXMXMXxXvXNX*X).g.T.g.c.r Q e F.%XU.dXNXNXvXNXvXrXtXrXrXNXvXNXZXvXiXyXvXNXVXnXBXmXmXmXmXmXnXBXnXMXBX",
"vXZXAXMXMXNXBXBXMXSXMXnXNXNXCXNXCXCXCXAX].g.f.`.L.c.#.A.P.L.F.Y.=XvXNXCXCXNXNXNXCXvXNXNXMXNXMXZXdXSXAXmXmXBXCXBXBXNXNXNXAXMXNXMX",
"AXZXSXNXNXNXAXZXSXDXZXNXVXNXCXNXMXMXMXNX_.H.J.L.A.] #.Y.P.'.s.Y.gX/.;.(.aXCXSXZXNXbXbXvXMXNXMXMXNXAXVXBXBXBXCXDXZXCXAXCXCXCXNXAX",
"vXpXSXZXvXvXvXNXNXAXNXvXMXNXCXCXNXCXAXNX%XB.V.A.B.E A.Y.P.].T.Y.uXQ N ;./.vXNXNXuXuXsXbXCXCXAXZXAXCXAXVXVXvXdXbXCXCXdXdXdXZXCXMX",
"NXCXCXvXMXCXCXCXNXvXiXvXCXZXNXvXNXNXNXZXiX!.^.iXH.j._.L._.uXgX].fXe e o N uXvXE.;.(.~.fXgXNXNXNXvXvXvXNXZXZXNXiXvXCXsXNXbXvXzXNX",
"ZXNXvXvXxXxXMXNXNXMXNXvXMXNXNXNXNXNXNXNXMXZXZX*Xk.z.z.{.`.eXjX0X0XR.t t Z.NXiX4 4 r :.8.NXNXMXNXNXvXMXNXvXNXNXNXvXNXvXvXbXbXbXCX",
"bXNXvXvXiX=X*XvXMXNXMXvXNXCXNXNXMXNXMXNXkX*X*X).l.z.).{.`.*XdXfXqXaXt R.CXNXiXe e e 4 Q MXMXVXvXNXvXMXMXNXNXNXNXzX*X*X*X*X*X*X*X",
"H.`.`.[.k.l.k.k.f._. X X{.x.x.x.x. X{.l.l.z.z.g.k.).`.`.`.[.sXgXqXI.v.^.aX).z.Q Q t t b. X X Xl.l.z.z.l.x.x.x.l.l.l.z.k.k.f.f.f.",
"g.f.f.f.f.d.s.d.h.h.G.h.j.H.z.j.H.H.H.z.j.H.z.g.z._.[.[.[.`.tXfX0XK.H.T.U.%Xk.b.N y Q S.J.K.f.G.G.h.g.j.j.d.D.G.D.D.D.g.s.t.n.$.",
"y.y.C.C.n.m.M.n.w.x t.r.i.y.n.V.V.Q.Q.A.C.C.L.).`._._.[.[.`.=XjXZ.F.K.K.v.%XV.m.Q N v.F.N.p.V.N.n.m.y.t.e.e.w.t.y.y.y.N.c x r.k ",
"t.m.n.n.t.n.n.w.y.n.t.9.9.y.M.n.n.M.m.M.m.n.j._.'._.'.].'._.&XjXE.Z.F.K.v.T.C.^.v.c.0XhX!.M.M.n.t.u.u.u.n.n.m.y.r.n.i.n.w.k w.t.",
"6.M.m.m.' y.i.W.*.=.W.C.M.C.=.C.C.t.w.t.x w.f._._.'.L.].]._.&XdXE.Q v.v.c.U.Q.T.S.d.J.J.!.p.w.y.m.*.=.*.=.n.m.m.y.n.t.0.9.0 0 x ",
"5.3.6.-.5.5.3.3.&.5.5.t.w.t.y.' w.k w.] *.=.)._._.'.[.I.].'. XiXE.u K.U.Y.R A.U.D.g.d.d.H.^.w.w.x r.y.n.r.9.9.9.9.0.0.c ' *.%.%.",
"o.}  .&.3.@.3.=.2.3.o.o.&.' ] ' x w.t.c [ M.).J._.'.].L.].'.[.yXqXc.K.F./.z B.Y.D.f.d.r.f.qXC.C.*.M.n.y.n.n.' c x k ' ] =.] c R ",
"o.I P P %.o.@.3.3.6.2.5.O.o.|  .} ^ ' c 0 0 '.K._.].XX[.]._. X*XqXB.F.U.^.C.B.Y.D.g.y.q d.XXC.X.&.&.&.2.2.=.=.0 < g k z ~ l 0 0 ",
"*...} X.U } ....o.} ` -.3.1.@.o.X.} _ } } ` L.K.J.].XX$X]._.&XrXaXD.U.U.!.Z.B.Y.D.h.d.e.u.I.A.%.%.X.@.o.o.&.l > < < 9 l g 9 < 9 ",
"D _ _ D ) / D J L / [ [ %.3.5.&.&.%.%.$.` ` I.H.J.$XK.$X[.'.[.%XjXF.Y.U.Y.R.v.Y.D.c.E e.s.H.V.O...X.} S ~ ~ g < < 0 g z l ' [ $.",
"} _ D D S D D D D L P &.X.....%...} X.o. .[ P.K.J.$XJ.T.L.[.I.$XFXB.F.Y.qX^.t.7 l q 5 + r.I.' z l z z ~ ) $.[ ~ &.,.7.7.7.8.7.5.",
"A _ P D ^ S D S S D _ ..X.| ......$.} P P ` '.K.K.].I.[.P.XX[.I.dXB.v.U.^.^.q 8 % + O   q N.%.<.5.,.,.W.W.3.<.3. .3.~.1. .T  .P ",
"B B ) } } ` ..) ` D _ _ ` _ Z P P } _ ....`  XK.G.L.].'.[.XX%X].fXB.v.F.U./.q 3 3 % O O u.N.4.3.3.1.1.<.O.3.@.3.3.@.o.X.U O.U Z ",
"L S S S V ! ^ ` ^ / ` _ ......` / ` ) ^ S V J.L.K.).XXI.P.K.!.%XeX0Xv.F.F.R.4 8 3 % +   u ] O.4.,.6.=.T @.} | %.X.}  .X.} D _ D ",
"_ o.} S P _ _ ` ^ V ) ^ S / D / V V D ! z ~ G.H.K.].H.L.T.I.G.T.0XjXN.I.K.A.4 8 + % O   e { &.} _ } P } ..J D [ S _ _ C Z V S V ",
"A S / P .._ X._ / S V ^ ) ^ s ~ ~ ~ ~ ~ &.&.I.g.H.I.L.).L.I.K.T.T.uXb.m r 3.| 8 + % + O 7 / } ) ` ....[ ^ S ^ S B ^ V s V B P ! ",
"( ^ ....%.[ %.D ^ ^ V z z z ' `  . .o.&.` %.'.H.K.H.K.]._.'.K.).'.=X/.r t | ..3 +   + O b._  .^ ] ` ^ ^ ( A / ~ ~ ^ V V ^ ! P C ",
"^ / ) [ ) / ] ) x c / / ' ' 5. . .<.&.=...*.).j.H.P.K.I.H.H.H.L.XX*XaXq q A &.8 +   % + q %.X.$.<.O.D 5.X.} ^ ` [ ` } } | | I I ",
"( } _ ~ ] ' &.M.] _ J  .@. .=.3.^ / _ @.4.W.).H.g.K.T.T.I.'._.0XeXeXuXV.M I I 8 O O % O 3 -./ | 1.~.Y Y T <.} J  .1.,.T >.T I I ",
"z V ~ / U =.%.~ [ o.T T 1.) W.8.W.` ` | 3./.).H.).K.K.].'.].XXuXfXeXrXaXT @.I I e Q 7 4 { @.U 1.} ,.O.~.&.I G  .@.,.,.>.7.Y ! ( ",
"( ! ^ ) o.-.@.%.Z.-.T T @.C.W.6.M./ +.4.I %X).).z.H.I.T.I.I.[.uXhXuXuXiX~.D P O.N Q T r Q 1.O. ./ I 3.6.} } J <.O.Y X.<.1.P D { ",
"/ / ~ n.) W...@.~.T  .X.} X.} W.*.^  ...3.XXz.H.z._.I.L.T.L.'.=XjXfXdX!._  .} J N Q  .r Q _ &.^ ..&.} I J D A ~ C R ' P V.| P 1.",
"} &...C./ *.} P _ L S Z. .Y 3.&.X.I P L ~.`.).H.z.).T.J.I.'.'.&XfXjXm.U  .4.,.%.m m =.m Q U O.U ] W.$.V V P I Z / ~ $.L *.4.U 6.",
"..} &.5.X.[ } | Z ` B / @./ { I } ..U L A.).).).z.).XXI.J.I.'.[.uX^.p B ,.7.<.T e e W.e e Y 6.,.1.W.] S U  .Y H @.T $.X.P 6.<.5.",
"} } %.&.~ ~ ..S F X./ S P ) { 6.I Z O.M ; e.f.g.g.).XXXX'.'.D.r.0 = M D Y @.%.K 4 Q &.u Q T Y ` ,.5.O.X.P Z G I J 3.@.@.J 6.-.-.",
"/ S ..U ) B / } U D S P M 7.T -.+.! p = * $ @ @ = 0.K.J.u.0 @ # 6 Z @.| ..z 6 7 m { p Q ;.O.S A O.,.]  .@.F G U ` ^ ] L I %.} Z ",
"J F +.J ` ~ V | L | A ^ z / 1.=.6.R = * > @ # & @ % X 3 @ $ 6 6 J ( O.p 0 , & 5 M - 5 K +.P =.} } I W.7.5.F P [ Z A ..<.T X.D D ",
"5.F H F  .@...P *.U U +./ U 6.! 9 > & # ; - & * & % 4 5 & s P R p 0 6 * = * > , = 5 A X. .) M.} H U >.7.*.D C ) [ $.P 1.-.S C C ",
"J K I C / O.@.P | D K J A A l = @ * & # ; < * * * $ p C L  .-.0 , < , $ * * $ a s | O.T } {  .| U H y.o.} ) ] ] ) | / ] -.[ / B ",
"O.V Z L J ,.<./ C R R M 9 , * * $ $ $ @ * * * @ @ 6 M J +.+.] = , = = # ; = 7 F H ,.o.Z / { / T T Y z ( T ^ E ~ C F B / =.[ [ s ",
"} ~ L K J z z k 6 a p & # . * # = & @ $ , . ; - a K P P 8.F R 5 5 6 * z D S +.8.K 3.} / L ] -.Y 8.D Z ^ A V ( F Z ;.J V W.*.] B ",
"+.@.+.M 0 6 5 - ; $ $ > ; & $ @ # # = # ; p R M J ;.Y Z o.| D Z B 6 K D J ..+.W.} ^ Z J / C.X.} O.A J L C ` V } } Y J W./.Q.C B ",
"P @.z ; > , # * & $ & $ & < & @ @ & 6 - 6 M / I Z | O.J ^ A L R C Z F ! D *.{ @.X.A ^ C ..| ^ ' ] ^ R J J ` C D ` C ^ ) Q.] C z ",
"Z ( 5 # ; < = * & $ @ @ @ ; - = = 5 s s | Z } Z E ^ Z  .M B ~ C K R R A M Z F L L Z C F m./ ! E ) c E c A / C A D V A m.m.' ! M ",
"s 5 ; & = ; $ * < * @ # & < - p p M L V  .J R { R B C B B B ! J F R E M A | C ` ( J U J ] ! ! E R c c Z Z ! Z C O.! ' ~ ] ] L C "
};
