/* XPM */
static char *d0d5caabb68e4b2ed9ac9f2c2b88db7dpZ1wYeAvkANG0z5d[] = {
/* columns rows colors chars-per-pixel */
"64 64 253 2 ",
"   c #0C1517",
".  c #0C161A",
"X  c #0C1B1C",
"o  c #11161A",
"O  c #141C1C",
"+  c #1A1D1C",
"@  c #211F1D",
"#  c #0D221E",
"$  c #14211E",
"%  c #1B211E",
"&  c #0E1A23",
"*  c #131D23",
"=  c #141B29",
"-  c #0F1C36",
";  c #151D35",
":  c #211F27",
">  c #0E2324",
",  c #142322",
"<  c #1B2323",
"1  c #14232C",
"2  c #1B232B",
"3  c #172F2C",
"4  c #192A28",
"5  c #132434",
"6  c #182837",
"7  c #14243B",
"8  c #1B2C3C",
"9  c #1A353A",
"0  c #222523",
"q  c #242829",
"w  c #33312A",
"e  c #262A37",
"r  c #352C36",
"t  c #243738",
"y  c #37363B",
"u  c #48322A",
"i  c #473738",
"p  c #26453B",
"a  c #394335",
"s  c #4B4737",
"d  c #615236",
"f  c #736034",
"g  c #161F41",
"h  c #172846",
"j  c #1A2B44",
"k  c #19254C",
"l  c #1C3243",
"z  c #1B3648",
"x  c #192652",
"c  c #1B2B54",
"v  c #1C2B5C",
"b  c #1C3657",
"n  c #2B2F4D",
"m  c #243749",
"M  c #383848",
"N  c #243857",
"B  c #1C2C62",
"V  c #1E2E6A",
"C  c #1D3567",
"Z  c #1E3976",
"A  c #212E65",
"S  c #233B63",
"D  c #273966",
"F  c #22346C",
"G  c #243B6C",
"H  c #333F64",
"J  c #233573",
"K  c #243B74",
"L  c #293D74",
"P  c #253C7B",
"I  c #433B45",
"U  c #1B4551",
"Y  c #264748",
"T  c #32504E",
"R  c #274759",
"E  c #354957",
"W  c #375858",
"Q  c #396254",
"!  c #1E486A",
"~  c #274667",
"^  c #374966",
"/  c #295468",
"(  c #355668",
")  c #244374",
"_  c #294976",
"`  c #25437D",
"'  c #2A447B",
"]  c #2C4B7C",
"[  c #334B77",
"{  c #2B5778",
"}  c #365878",
"|  c #306373",
" . c #386378",
".. c #485051",
"X. c #4E6D57",
"o. c #6F7954",
"O. c #424B63",
"+. c #455A67",
"@. c #455A79",
"#. c #4E6A6C",
"$. c #486879",
"%. c #547879",
"&. c #6D7873",
"*. c #92724F",
"=. c #708D78",
"-. c #DA9531",
";. c #E29D33",
":. c #CCA131",
">. c #E5A435",
",. c #979255",
"<. c #AC9B50",
"1. c #878E6F",
"2. c #90AA75",
"3. c #98B57A",
"4. c #A7B376",
"5. c #D9AE4E",
"6. c #D4A954",
"7. c #E3B74B",
"8. c #ABC07E",
"9. c #BBC57B",
"0. c #E6C75A",
"q. c #C8CC76",
"w. c #D3CA75",
"e. c #DBD678",
"r. c #E8D66B",
"t. c #E6DA75",
"y. c #EBE27B",
"u. c #F1E478",
"i. c #253D84",
"p. c #1E5882",
"a. c #2A4484",
"s. c #2C4B83",
"d. c #284788",
"f. c #2B4B8C",
"g. c #314C85",
"h. c #2C5787",
"j. c #345485",
"k. c #385885",
"l. c #32548C",
"z. c #345B8C",
"x. c #3B5C8C",
"c. c #2C4B93",
"v. c #324E94",
"b. c #2D5696",
"n. c #355B94",
"m. c #365896",
"M. c #335C9A",
"N. c #2D648C",
"B. c #2C6D8E",
"V. c #39668A",
"C. c #3A738A",
"Z. c #346494",
"A. c #3C6394",
"S. c #366B94",
"D. c #396798",
"F. c #3B649C",
"G. c #3C6B9C",
"H. c #3B7697",
"J. c #2E56A8",
"K. c #365CA4",
"L. c #3B65A4",
"P. c #3C6BA3",
"I. c #3969A8",
"U. c #3D73A6",
"Y. c #415E8A",
"T. c #46698A",
"R. c #586D84",
"E. c #4A778A",
"W. c #597A8B",
"Q. c #466996",
"!. c #436D9C",
"~. c #506E97",
"^. c #447394",
"/. c #497997",
"(. c #44749C",
"). c #4C749C",
"_. c #547998",
"`. c #617E91",
"'. c #436DA3",
"]. c #456DA9",
"[. c #4373A4",
"{. c #4777A7",
"}. c #4C7CAC",
"|. c #537DA6",
" X c #4578B3",
".X c #5A8789",
"XX c #518E8E",
"oX c #4A8599",
"OX c #578799",
"+X c #579499",
"@X c #668889",
"#X c #68978B",
"$X c #759889",
"%X c #638B98",
"&X c #718B97",
"*X c #699798",
"=X c #729998",
"-X c #79A68A",
";X c #6AA299",
":X c #77AD91",
">X c #78A698",
",X c #4A83A8",
"<X c #5886A8",
"1X c #5B94A9",
"2X c #4884B4",
"3X c #5689B5",
"4X c #5C94B9",
"5X c #678CA8",
"6X c #6795A7",
"7X c #759AAA",
"8X c #658CB5",
"9X c #6799B7",
"0X c #769BB7",
"qX c #77A6A4",
"wX c #71A8AE",
"eX c #78A5B9",
"rX c #5E94C3",
"tX c #639AC5",
"yX c #78A8C3",
"uX c #72A9CB",
"iX c #86A887",
"pX c #91B285",
"aX c #97B688",
"sX c #88A997",
"dX c #8BB396",
"fX c #98B998",
"gX c #A7BA90",
"hX c #8D96A1",
"jX c #84A8A9",
"kX c #87B5A2",
"lX c #96B8A7",
"zX c #8AABB8",
"xX c #93B6B4",
"cX c #A5BAAF",
"vX c #9AC195",
"bX c #AAC484",
"nX c #B8C883",
"mX c #A7C497",
"MX c #B7C799",
"NX c #9EC1A2",
"BX c #AAC6A8",
"VX c #BACCA6",
"CX c #B8CCB6",
"ZX c #C8CD8A",
"AX c #C9CD8D",
"SX c #E0D888",
"DX c #EBE384",
"FX c #C7D3A8",
"GX c #C8D5B5",
"HX c #86B2C8",
"JX c #A3BEC4",
"KX c #ADC8C6",
"LX c #D3DFCC",
/* pixels */
"L J G K G v h v h S ' A F S N A A G g.' K ) A v [ } g.] g.z.L ' V.g.Q.@.Q.x.c _ ] L A.S ] z.F.m.n.x.k.' G { F.x.R.R.+.n g c _ V.",
"G ) ~ ) G v h h ^ G S x N F G v A L Y.K A k k k A ^ g.H P l.S @.T.!.^ [ k.v F F F ' L _ V.n.s.l.n.G ) L c ] g.M.F.M.T.T.H [ x.[ ",
"Q._.} OXR.] x v v x m N [ P J L _._.%XE.[ L A k v g.} x.<Xx.|.).Q.k.[ S A v v v F G G ] l.n.F.j.G ~ j.x.g.' Q.j.m.l.' N N [ !.<X",
"zX7X9X%X0X5XP B B G ~ S N v A @.=X$X$X6X(.D G k.) ).<X_.|.T.|.V.<XY.F F @.H F v v F } [.x.A.m.F L m.F.M.g.z.j.A.l.x.[.!.' x.T.}.",
"qXfXnXfXzX5Xj.J F x.&..XH v F ~.7X2.,.=XQ.T.%.$.@.[ [ j.l.x.!.9X~.{.T.A J B v c P x.).Q.Q.A.f.s.A.|.[.l.G.Z.F._.OX.X=.#XE.T.,X}.",
"lX8.:.nXxX8X~.J F Q.%X=Xj.J P Q.6X.X.X=X_.>X<.iXOX' S ] x.Q.Q.] j.v C J ] Q.k.[ c.f.Q.F.!.j.' G L.).T. XP.P./.pXvXvX2.=.-X=.6X}.",
"jX>XmX2.xXeXg.B k K x._.) x v ] _.OXOXOX).>X<.2.=XK L ) ' ' G B v V j._.%XE.T.%Xv.m.F. X' j.B ' '.!.{.m.OX*X$X9.iXq.q.3.aXpX-XwX",
"<X5XzXW.7X0XF N h F K L c c L i.s.s.} D ' E.*X.Xk.J f.}.m.l.a.a.v.i.x.qX3.4.=.#X).v. Xf.S ~ c {.{.'.'.x.fXmXMXZXe.y.t.q.9.gXvX3.",
"5X5XA.5X5Xm.J n 2 i.a.L K K K l.' _ ' a.F x F F k v J P J J B _ d.c.eX7X3.<.2.=.E.m.c.v.m.F ) ].].).OX-XbXmXq.t.y.r.0.7.e.nXaXpX",
"k.} x.s.] a.a.q < V P J P a.a.f.l.b.I.v.a.F ` P B v K a.a.f.P L a.v.<X6X-X2.2.@X=.a.K f.l.f.m. X].(.%XpXaX9.t.r.7.>.5.t.DXZXnXiX",
"P P F F K a.d.: * K J J s.d.` f.` f.L.M.M.f.` J B v P i.a.P G j.a.s.!.OX=X%X+X*X%.K c c N M.v.K.].<X#XvX3.e.u.7.>.7.DXt.DXZXAXaX",
"L j.s.` a.a.f.= q [ $.o.#.H B V V J B J F K v B B J J P K B C P ` d.v.m.<X1XOXz.f.F c x N a.a.K.{.).#X:X4.r.0.>.>.t.y.y.DXe.ZXbX",
"P K P J K a.f.= 6 #.=.1.=.+.B V C P V A e ~ _ ) K H [ O.O.^ F d.P x F l.z.b.h.` b C v c.f.P J K.].F.XXiX9.r.7.>.>.r.t.y.DXt.q.bX",
"i.J K F J P f.2 m =.<.>.<.=.P J F K H [ }.I.b.b.F.Q.Q._.~.T.x.~.$.a.L L f.c.n.z.j b s.b.J.K.i.c.U.!.-X3.9.r.7.>.;.7.y.DXDXr.e.3.",
"` P P a.K F ` , H &.,.:.<.&.P J P H x.P.L. X4X<XsXxX0XHXzX9X'.|.5X<X[.x.K a.g._ s.s.].Q.<X4XI.f.L.[.-X3.2.e.r.>.;.;.7.r.r.:.q.aX",
"J J F P P K i., D Y.&.1.iXT.J J ` z.m.U.F._.sXaX1.1.&X7XzXHX'.}.|.<X8X0X~.` K h T.Q.$X$X%XwX9XL.L.P.#X#X2.q.u.7.;.-.-.;.-.6.nX4.",
"c v P F F J F * N i.a.a.i.i.F s.A.L.[.G./.iXpX`.E.E.%.@XW.~.).|.{.F.~.0X8XR.a.F ' *XpXpXlXsXOX/.F.L.oX^.=.q.t.y.7.;.-.-.6.w.9.iX",
"L h x J J J J 5 n i.v.` s.) m.^.^.E.(.^.R.=.iXZ.P.|._.Z.S.|.0X8XF.'.'.6X<X7X_.J a..XaX4.AXlX*X,XM.m.F.XXW.nX9.e.u.t.u.e.9.nXbXiX",
"tXV.j v C J P c 2 P M.].3X3X{.OX>XOX/.W.iXsX*Xn.M.b.M.M.s.{.Q.9X9XL.l.s.0X<X9Xl.d.T.pXsXfXjXqX1XI.L.[./.=.bXnXpX4.q.t.q.nXnX8.=X",
"R.8X9X).j.z./.T.O _.5X8XrX3XqXwX*X6X}.5X7X( l C l.l.M.L.P.l.V.).HX8X<X{.k.yXrXI.a.m.#X.X*XqX*X<XP.'.F.{.,X-X$XaXmXvX9.3.iXaX-XOX",
"&X_.<X%X%XOX}.^.q E eX<X|.<XwXwX<X<XeX6Xb j _ Q.j.@.s.A.U.P.s.l.9XyX_.9Xl.x.<XK.K.b.'.,X3X<X}.[.{.[.M.A.[.U.oXOX;X+X$X3.#XoXG.{.",
"3X3X<XW.^.Q.<XW.4 X *XOX<X9X5X,XOXeX_.{ l ~ ^.<X_.6X7X_.m. X[.A.{.<X} 0X'.x.h.b.I.f.f.b.L.I.F.[.{.[.Z.b.M.L.P.G.[.U.,X*XA./.[.C.",
"z.}._.8X9X^.<Xw >   %.5XOX).|..X-X$X.XN ~ [.%X<X<X5XjX|.'. X3X<Xk.<XyXeX0X).|.b P.{ d.b.M.b.2X2X2XP.L.z.M.I.F.I.I.I.{.(.n.V.(.V.",
"V./ V./.6X} ~.< X . OX<X9XyXOX-XMXFXkXN F.<X).5X5X<XjXyX{.G.3X}.!.9XuX9X9X<Xm.j [.V.~ s.c.M.I.P.G.N { G.G.n.G.I.P.I.U.G./ | oX^.",
"4X4XtXrX9XE _.q , $ OXyX1X} R #XdXsX@Xz.[._.).3X|.{.|.eX<XZ.I.3X8XyXtXyXyX5XV.} {.z._ h.G.D.h.S.V.~ ] Z.S.I.P.m.M.F.G.z.h.(./.(.",
"eX3XtXtX4Xm _.< # $ _.Z.N.6 s. .;X=X} z.}.7X[.{.{.|.m.<X<X[. X3X8XuXyXyX<X~.A.3X!.V.} { s.s.` z.N.z.E.h.H.Z.F.n.F.G.M.Z.Z.j.m.F.",
"tXtXrXtX4X4 m , # # _ _ h.= b V.~ C s.S.Z.HX8X,X(.[.j.|.{.{.!.3X3XtX4X!.A.g.4X<XT.&.&.&.@.Y.G.N.z.N.z.OXT.S. XI.I.G.].P.] S l.D.",
"yXtXtXtX4X> 2 $ , # ~ { ~ 1 b ) ) _ S.H.<XyX4X<X9X_.(.] [.h.}.[.,X}.3X1XQ._.[..XjXcXzXeXzX5X^.G.Z.N.S./.U.U. XI.I.F.I.].F.).=XnX",
"A.(.,X}.A.> * $ , # m _ ! ~ b 7 b N.{ S.3X9XtX{.9X/.+Xj.G.F.) [.F.d.h.s.h./..X=X7XJX{.|.|.zX0X).H.A.G./.2X2X X X XM.3X9XsXpXq.ZX",
"j.F.`.2.=.t & + 4 X z N b N._ 7 b n.S.G.U.yX3X0X3X8X9X*X).P.h.~ ) M.F.R.*X%X<X!.n.Q.F.x.l.).1XF.<XS.G.G.,X X].4X0XyXxXAXnXmXFXBX",
"m.R.3.3.2.T 2 * O X 4 N b { h.` z.S.G.S.U.2X9XHX).3X6X6X2X2X X1X6XK.'.(./.[.).[.[.U.[.Q.s.k.eX{.].V.Z.P.}.}.zXVXgXxXgXAXVXCXBXCX",
"M.=.aXSXgX..2 * < X $ E l V.,XZ.V.^.*X=X1X1X2X X}.4X{.4X3X2X4X1X;X*X,X,XU.b.S.G.5X6X,X'.`.9X8X<Xl.z.N.[.{.5XFX9.ZXMXmXVXGXLXGXBX",
"F.@XpXAXmXX.4 O + X + ..( /.U.@X%XKX7XxXxXzX0X{.].A.!.1XwX1X(.*X^.n.F.[.,XH.h.9XHX9X X].9X1X_.4XG.s.G.!.>XlXgXMXBXfXBXCXGXCXlXqX",
" X<X2.3.iX.., X 0 # O t ( ^.S.qXjXCXCXCXcXzXKX<XL.z.x.3X9X{.D.g.s.m.Q.S.S.h.S.<XyX{.P. X3X|.@X9XF.) A.sXfXBXsX*XlXfXkXlXlXkX>XfX",
"n.L.Q.).^.w O X + $ X R U.,XoXlXgXMXFXFXVXGXKX0XF.z.k.T.HX3X}.L.M.U.Z.` { H.(./.3X9X_.}.9X@X<X!.] k.$XpXMXMX=XdX>X;XwXjXsXdXiX..",
"s.n.m.F.} @ X X + . X R U.S.E.sXMXVXZXw.MXVXBXjXA.h.h.^ D } j.z.H.H.a.z.V.S.[.H.OX4XyX9X}._.)._ } >X-XpXmXmXfXsX@XoX6X7XM = 2 o ",
"_ ] h.Z.^ + , . + X , R z.~ $.$XGXFXAX6.FXFXBX*X<X(._.G._ ] S.H.S.N.) z.{ ) S.<X6XE.j.Q.V./.E.OXdXmXfXpXmXfXsX.XE.+Xm W.N = * o ",
"N G l.F.R , + . o X , m Z.h.} $XCXVXcXLXcXcXGX7X<X).OX^.Z.S.H.H.H.Z.G.,XH.h.oX1XsXBXkXqX6X*XiXmX:X:X-XdXdX:X .oX;X=.N m 6 ; o = ",
"%.] ] z.E O + 0 o X , t V.{ S.=XBXFXLXLXCXxXBXzX(._.6XD.Z./.OXOXZ.Z.qXNXfXqX+X-XVXVXVXmXVXfXmX>X>X:X>X;X.X@XOX+XW ; k h 7 ; o ; ",
"2.OXF.l.E X + < + . , < Y R V.( JXKXcXKXKXzX6XW.&XOXOXxXqXpXgXiXH.qXmXgXmXmX;XXXqX;X;X+XOX*X;X+XoX/.C.C.*X*X6X>Xe x x v c ; & = ",
"iXiX%X).( X X + + . , % p ~ R z./.7XzXHXeXOX2.9.dX>X#X*X$XaX2.pXqX>XfXsX$.#XqXkX>XqXqXkX>X;X*X+XoX+X.X.X..M h h c A k g h ; = ; ",
"-XsXiX*X+.X X + o , 4 % 4  .6 N ^./.OX>XpX4.4.aX:XdX>XsX>X+X#X-X>XsX@X .H./.H.E.#. ./ +.>XV.} ] } ] D j ; h x h ; j ^ @.} } ^ ^ ",
"OX>X>X@XW X X X o O , , < / 1 q #X*X=XdXdX;XsX*X;X+XoXC./.kXsXC.H.oX@XOXC.#.N v C ~ j h h F v.m.j.b ; ; 7 ; h 6 [ F.'.L.G.n.z.k.",
"/.OXOX(. .* O X o 0 0 , $ / o O y #XqX>X;X*XV.N.H. .~ +.+.$.oXoXoXoX$.( v Z i._ ) C v v k 7 h ) b 6 8 j m 7 7 j.M.L.G.F.m.m.l.l.",
".X/.^.(.OX4 X X $ 0 + 0 + ( * O o s #X*X+XH.H.[.H.C.C.$.$. .+XH.+X .E s.b.d.s._ _ C C v 6 ; x Z N C d.P K ` i.v.M.U.[.[.{.).A.l.",
"XX} XXoXOXY X X , 0 + 0 q z 8 O $ + E C h.oXB.h.S k g j $.*XE. .N S [ ) c.d.] ` ~ S B h h d.c.f.f.f.v.f.f.i.i.f.l.L.}.}.,X[.m.v.",
"oXOX^.^.oXY O X O 0 O + < . R o o $ 0 } N.| G J Z C x g c ~ x v ) s.A._ f.` ` ~ S N h L K.c.b.b.s._ ] v.i.b N ' l.!.OX|.[.m.v.[ ",
"V.V.b.] E q $ $ O +   o $ + 9 , + X $ 0 j C K C B C ~ S B C C ! b _ A._ Z C b c j c f.K.m.R R R R  . .R ~ m m E %.*X$.E.V.R W T ",
"K G h 8 t + , X O o O o   q X 4 , 4 4 + q c 7 7 h k C {  .R z l b ` x.N h j b ) ` s.` } / 9 9 U / U Y | | | R p R XXY Q X.W X.Q ",
"h j j 1 2 X 4 X O +   O . 4 * * q $ , , 0 8 5 6 1 6 l b  .E.E.R R / T.} N.S.B.H.N.| | B.B./ / U Y T 9 9 W T Y 9 Y X.| T Q Q Q W ",
"j & 1 6 q X % , , % @ + o O 4 . + O , 3 q 6 6 6 6 ~ ( R b 8 z m U ! _.^.| / { | | / R U b { { H.V.H.E.+X$.z R R R %.#./ %.X.W T ",
"& 5 6 8 O , + O , , 0   + o 0 + O O o 4 q 6 1 8 ~ { _ ( / R 8 y W l t t R b _ N.h.! U U b 9 9 5 5 j z / l / / ~ { oX1XV.R #.( ( ",
"6 b S 2 O , o . 4 , < o o 0 0 O O % O , 0 t 9 8 k h e 7 8 #.W.T W.R $.m e - 7 b.b._ p.p.! 9 m h 7 l - z / / { R z { oXH.z T T / ",
"N K G < , , . . O < < + + < 0 . O + + X q e < u u i u e = E E %.W $.%X1 m ] ~ ~ b b 3 h h 7 d m m ; - h b ! { |  .Y R C./ z 8 N ",
"m ~ S < + * . X o 0 + + + < 0 . + + + X 4 + b ) h : = r d #.+.2 &.^ $.= N 7 7 z l t w e h S E E.$.} R - 7 b z / | C.9 9 R { { R ",
"j b b , + X . X X < + o + 4 0 + + % + $ % O 6 N 6 x = * t T 4 X #.+.E.E } z . . * 1 d t C ) ; j t Y ~ ; & = h 5 z m = & * & ; * ",
"7 N R < + $ O . O < O + X O O + O 4 % O 0 > . < 6 * 6 3 3 t 3 1 2 t q 0 e q q & . . * . . & 5 ( W #.%.( ( R 7 & = 1 6 m m j z j ",
"t p p 2 O + . O O + O + o o O . + $ X + 1 > X X * 4 3 * * , E $.#.+.y w w w q & . o 2 1 h 7 j ..T R X.~ ~ z h 2 ^ ( ~ ~ ^ ^ ^ n ",
"p t m 9 X X $ X . o . X + + . X X O @ < 5 1 > > X + 4 w w t ( ( ~ E & s s s ; M M H O.y = h 9 z 7 j j s d l 8 s { E R T 8 l j = ",
"p t p l 3 O . O X . X + O o X X 4 . + q 4 1 > 4 X o t y y y t 1 1 1 q ..f d i I I @.O.r r i q q e l 7 1 6 ~ } { #.o.o.R 9 9 9 1 ",
"9 3 t Y m O O O O X O + < . 4 X O . O q 4 4 O & , o m } } } ( | | ( a a s u i i y I I y d i r y e s 6 M 2 6 R R N e ..3 z Y z t ",
"p p p p p t $ < , X < $ O . t X X O O X t q $ < O * 6 m 8 t 8 8 l l * y w e y M y y r i i E I I j 6 ; e n 8 l l l l m 9 1 9 9 8 ",
"t p p p p Y , < 4 , 4 ,   . 4 X X o o * & , , 0 O $ m { } N b j 7 7 y + w q E ....M M r M M I I n M e e ; ; 7 7 b h j 1 1 9 6 #.",
"t 3 p t 4 p . $ O , + $ o X 4 . . + o + X , X @ O < N / / { / ~ ~ ~ * q y s #.*.*.....r e e y y j r r r z 5 7 8 8 ^ 3 5 8 1 #.hX"
};
