/* XPM */
static char *_f103166763a40bef6217c27e9698ab2tRby4xkAPeJ9sA4F[] = {
/* columns rows colors chars-per-pixel */
"64 64 245 2 ",
"   c #16152F",
".  c #1B162E",
"X  c #1D182E",
"o  c #121533",
"O  c #151935",
"+  c #1B1B33",
"@  c #131D3A",
"#  c #1A1E39",
"$  c #211A2F",
"%  c #231C32",
"&  c #291E32",
"*  c #1A243C",
"=  c #2B2234",
"-  c #262539",
";  c #362836",
":  c #3A323A",
">  c #482C35",
",  c #522D34",
"<  c #49353B",
"1  c #58373A",
"2  c #683936",
"3  c #77373D",
"4  c #56403D",
"5  c #72483D",
"6  c #142543",
"7  c #1B2B44",
"8  c #192A46",
"9  c #12264C",
"0  c #132B4D",
"q  c #15324C",
"w  c #1B334A",
"e  c #1A3C4C",
"r  c #132D53",
"t  c #143355",
"y  c #163956",
"u  c #1B3854",
"i  c #15355A",
"p  c #153B5C",
"a  c #1A3D5B",
"s  c #262C45",
"d  c #273547",
"f  c #243B4D",
"g  c #2C3C4B",
"h  c #373746",
"j  c #32354E",
"k  c #263953",
"l  c #233C53",
"z  c #163C61",
"x  c #183E62",
"c  c #492F44",
"v  c #483944",
"b  c #563942",
"n  c #6D3A41",
"m  c #1B454C",
"M  c #17415E",
"N  c #1F465B",
"B  c #1B435D",
"V  c #26454E",
"C  c #2B444D",
"Z  c #39454B",
"A  c #3A514F",
"S  c #2A4452",
"D  c #23435B",
"F  c #274858",
"G  c #364655",
"H  c #334C53",
"J  c #324B5D",
"K  c #2A535A",
"L  c #375558",
"P  c #164363",
"I  c #194463",
"U  c #1B4B65",
"Y  c #164768",
"T  c #194569",
"R  c #174A6A",
"E  c #1A4C6B",
"W  c #1C5369",
"Q  c #1C536C",
"!  c #1A4E71",
"~  c #1C5472",
"^  c #1D5A74",
"/  c #1C5C7A",
"(  c #254961",
")  c #234C63",
"_  c #364C61",
"`  c #245365",
"'  c #2B5767",
"]  c #23546A",
"[  c #235A6C",
"{  c #365865",
"}  c #255A72",
"|  c #235C73",
" . c #1E6278",
".. c #2C646D",
"X. c #366669",
"o. c #246374",
"O. c #276878",
"+. c #366B72",
"@. c #347175",
"#. c #377278",
"$. c #48484A",
"%. c #574847",
"&. c #4F514E",
"*. c #58564B",
"=. c #464D55",
"-. c #475757",
";. c #565955",
":. c #694746",
">. c #754B45",
",. c #68544A",
"<. c #795649",
"1. c #635652",
"2. c #7A5951",
"3. c #4A635B",
"4. c #596759",
"5. c #7A664B",
"6. c #656658",
"7. c #786957",
"8. c #69755C",
"9. c #777658",
"0. c #475A62",
"q. c #585A62",
"w. c #476967",
"e. c #566B61",
"r. c #45726C",
"t. c #577566",
"y. c #457673",
"u. c #4F7871",
"i. c #667763",
"p. c #6F7362",
"a. c #8A3D3C",
"s. c #943D3C",
"d. c #AC3E38",
"f. c #85453B",
"g. c #974839",
"h. c #94553B",
"j. c #A8493B",
"k. c #BC4437",
"l. c #BA4839",
"z. c #A9563A",
"x. c #B7593C",
"c. c #B7633C",
"v. c #C14536",
"b. c #C34B36",
"n. c #C44C38",
"m. c #C85737",
"M. c #D05E39",
"N. c #CB6538",
"B. c #D36935",
"V. c #C7763D",
"C. c #D77835",
"Z. c #823D41",
"A. c #875748",
"S. c #985847",
"D. c #8A5951",
"F. c #AE5742",
"G. c #88654B",
"H. c #986649",
"J. c #886554",
"K. c #976F50",
"L. c #897657",
"P. c #977858",
"I. c #A66749",
"U. c #B76942",
"Y. c #A7754A",
"T. c #BA7548",
"R. c #A66D56",
"E. c #A47757",
"W. c #B77A56",
"Q. c #907B62",
"!. c #B3796E",
"~. c #C05F40",
"^. c #CF7446",
"/. c #C67849",
"(. c #C47D52",
"). c #78815E",
"_. c #5A8471",
"`. c #6E8A6C",
"'. c #768766",
"]. c #DB8838",
"[. c #DD9539",
"{. c #E08B34",
"}. c #E29937",
"|. c #E3A236",
" X c #E4A43B",
".X c #E5AB3D",
"XX c #E8B23E",
"oX c #91855B",
"OX c #B6894B",
"+X c #AD8B59",
"@X c #B7855C",
"#X c #B4A85C",
"$X c #93946B",
"%X c #A68662",
"&X c #B98862",
"*X c #AC9263",
"=X c #B79769",
"-X c #98A46A",
";X c #B2AE66",
":X c #D08E4C",
">X c #C78757",
",X c #D99858",
"<X c #E19B44",
"1X c #E29D53",
"2X c #D3B04F",
"3X c #DCA359",
"4X c #E6AC43",
"5X c #E5A948",
"6X c #E6B444",
"7X c #E9B748",
"8X c #E5AA58",
"9X c #EAB858",
"0X c #C79867",
"qX c #D09665",
"wX c #C9A36A",
"eX c #D5AB6B",
"rX c #D9A968",
"tX c #DCB36A",
"yX c #CEB270",
"uX c #DAB676",
"iX c #E3AB64",
"pX c #E7B867",
"aX c #E3B36A",
"sX c #EABD6B",
"dX c #E6BA74",
"fX c #DAC45E",
"gX c #EBC852",
"hX c #D8C176",
"jX c #ECC567",
"kX c #EBC36C",
"lX c #EAC577",
"zX c #EDCB7A",
"xX c #F0CD79",
"cX c #EFD178",
"vX c #F1D47C",
"bX c #F2D87B",
"nX c #257181",
"mX c #678A8F",
"MX c #9DA388",
"NX c #EBCB82",
"BX c #EFD284",
"VX c #F1D484",
"CX c #F3D988",
"ZX c #E4D091",
"AX c #F3DD93",
/* pixels */
"~ U B J J J D x p a p z P x P x x p t t p i z x ! ~ ! ! ~ ^ ~ T i p p a J -.=.( i p r r r p p p i t t t r 0 r r r r t t t p I ] ",
"' ;.J P P z i i r i r r t r t i i i x E E E E p i i k k k k k D ;.;.1.&.G l t t i t P p t t p t p E o.^ o.o.+.O.O.O.@.+...| ^ o.",
"~ T P t i r r r 0 9 r r r r r r i z z r i i i p I T J _ _ 0.=.G j r t t i r i x x r t I Q ^ ^ ^ ~ ~ Q E ~ | +.o.} } +.O.O.~ ] U ",
"i i z i 9 r z z x x z i i z i l 0 i r r i x x T z i r 9 9 9 0 0 i z x z z x i r t E / ^ ~ U Y M t t p k j j h a r 0 w r t t F ;.",
"z i x T E R E ~ ~ ^ ^ ~ ~ E T I D x x i 9 r r i r z x P z i i x p p r t i a P E ^ ~ I t t E Q w.e.e.e.6.i.i.i.r.o.o. . .X.t.t.L.",
"x E Y Y ~ ^  .^ ^ +. . .r.u.O.^ ~ E x ) J G u j r r 0 r r t u k G J Y ^ [ R  .~ M p E e.T.F.C.N.m.b.m.v.v.v.m.N.B.C.I.K.K.K.I.m.",
"y.o.| O.^ E P i i i 0 r r t ` ^ O.O.~ ~ ~ R Y ( _ -.J D J ( ( ) R ~ o.O./ Q P P [ 7.c.m.l.l.n.N.].].].].].].B.m.m.N.N.M.M.m.m.l.",
"O.^ E P P R E ~ ^ / / ^ ~ E p t x ] X.+.t...E E R Y P P ~ R | o.y.nX .P i P | L.c.l.k.n.C..X.X X}.[.}.}.}.|..X.X X}.].B.B.[.4X X",
"I p ( _ q.D.S.I.I.I.D.D.D.S.0.} E x x Y X.r.i.t.r.r.O.O.O.O.O.o.U p p P [ 9.x.b.v.m.[..X|.}.C.].].5X7X7X7X7X7X6X.X7X6X.X7X6X4X4X",
"q.2.S.S.2.S.l.n.n.n.l.l.j.F.H.L.L.r./ E Y P E E ~ ^ ^ ~ Q E Y x p Y | 9.Y.m.b.N.}.7X}. X}.5X7X4X X|.}.[.}.}.}.}. X4X5XgXgXgXgXgX",
"S.F.F.l.k.b.N.C.C.C.C.C.C.B.v.l.S.Y.9.oX'.w./ / ~ Y P E ^ / / O.8.L.G.S.k.N.].XX[.[.7XgX6X X}.}.}.].C.].C.B.C.C.C.{.{.}.].[.6X6X",
"b.n.N.C.}. X4X|.|..X6X7X7X4X].C.m.n.n.S.G.OXOXOXoXK.D.D.oXi.8.V.l.k.d.m.].XX.X].5X9X<XC.].].B.N.m.k.k.v.v.v.k.k.k.v.m.C.{.].B.C.",
"4X7X6X7X7X6X5X5X9X7X8X8X6XgX7X.X.X].].M.B.N.x.l.l.n.v.b.m.m.n.k.b.m.].|.7X X5XgX<XC.C.M.k.k.k.k.k.j.a.a.a.a.3 c v b Z.a.g.l.n.N.",
"7X7X6X7X9X<X}.{.{.{.].].].}.4X6X4X.X2X2X<X].C.m.n.m.m.m.B.B.C.[.|.XX7X4X].:X5XC.B.m.v.l.d.3 c d t p I E Y T x T P x p G G p c d.",
"5X<X}.[.].B.z.n n n n 3 l.M.C.}.4X6X X6X7X2X6X7X6X7X6X4X4X6X7X4X X[.[.:X2X].m.n.j.3 c 8 i P x i r i i x z z z z i i t 0 r i x T ",
"].C.c.f.c s 0 r t 0 9 9 0 j h g.N.{.|..X7XgXgXgX5X5X4X5X}.5X4X:X:X7X.X].N.k.3 s t i x p t r i i T i t r r t r r 9 r i z T P i z ",
"b j k t p z x t t t x p x i i t j a.l.B.C.]. X6X6X6X4X4X X].].].C.N.N.s.h w z x i r t i i x i r t p x p r 9 9 0 9 0 0 9 9 r t i ",
"x x Y P P x x Y ! R E p i t 9 r i i r 0 c b 3 s.a.a.a.a.1 b b 1 b s 0 i T T r r i i i r 9 r i z i t i t x T x t I E p 0 9 9 9 9 ",
"D J -.-._ Q E P i i t x x x E x 0 9 r i i z z r i r r i r i i i t P I t 9 i z i t r t p E ~ Y P p p Y P p i t t t t t i y P R R ",
"x.m.m.m.m.N.7.E ^ E ^ E ~ E i t P T x t t i r r r i r r r 9 9 r r r r x P R E P R Y Y p i y t t Y Y P T U Y E Q Y p y p P p P P ",
".X<X5X4X[.N.m.1.E I E E Y T T x R ! T p i x P r i i r r r r i x P E ~ P P P U ) M ) ' I Y Q E U B U B B S B B ) U Y Y I y 0 t E ",
"#XfXyX;XfX4XN.M.( I i E I p p I M i P R ~ / E ^ R R ! R ^ / ~ x I x i a 0.0.0.-.{ D C u y t i t r r r t y i u f g C t t t I M t ",
"$X#X-XyX_.fX].m.&.W ` ' P E 0.;.;.2.=.=.l p P E Y E P i ) p t 0 0 0 q y U Y p P P x x Y Y R x i p p p t r t i p i p p i t t 8 l ",
"-X#X#X$X'.-X<Xn.6.U F D ;.-.' { { X.#.{ -.=.=.2.,.%.,.1.-.q v R.E.E.R.1.* 0 x x p p p p P Y x Y Y P P P P M i y q 9 9 0 g =.9.oX",
";X'.fX-X;X_.6Xb.;.x p Y U I p u a B I E | O.o.' { } ] I 8 J.tXjXjXVXCXuX%Xv 0 a M Y E p q p p t 0 0 0 q q f q t S -.-.{ ) oX`.' ",
"_.$X;X`.;X$X5Xm.=.p t 0 t p t r r t 9 0 r r r r p p 6 s R.tXjXzXCXAXAXCXlX&Xv * 0 t 0 q y u B p B u e 9 0 y D F J N | | { '.w.U ",
"$X_.-X-X-X-X}.I.p x P p x t 0 r r 0 0 i r t r t t 8 S.1.E.jXzXVXVXCXVXVXcXrX,.>.s U W W Y p p P 0 a p y y ' D a p ..| ) i.X.U U ",
"$X_.;X2X2X#XC.: h t 0 0 0 6 * 0 L H H F ' K L K t ,.*.;X%XzXaXdXxXBXNXdXlXtXP.P.K.* U ~ p p I 0 D U a I ) t M Q o.w.Y oX..M M ~ ",
"-X'.5.%.fXV.,.< %.S ;.8.6.- G.=.U U F N B ] ` i 8 oXP.7.eXH.<.T.kXVX(.A.A.qX*XP.%.:.y P I I t F I I M W p M W Q X.{ [ '.X.y W ~ ",
"-X#X5.,.>X6.+.+ ;.+.X.X.[ 8 <.a L L K ` D p p t v :.yX7.Y.$X$X1.iXdX:.MX$X2.0X*.*.f.q I U t g U Y U E p p ' Y  .i.] u.`.] t W Q ",
"-X#X: = 0.y.f + - K e...) @ - * ` ` ` Y Q p p t h %.NX,.I.-Xp.6.lXNX,.-X$X%.&Xb 6.f.q ] Y u J U | x U p N -.^ ^ 4.Q #.'.W y W E ",
"#XY.+ % =.+.@ # O d X...* o o o u ..[ U P p i t 6 :.NX,.qXH.A.>XyX%XqXS.A.(.0X< 6.f.0 [ a G E P Q I p P J M o.+.e.~ u.u.N p Q Y ",
":.F + + V X.O O + 8 K ` o o o @ I [ U W I p i y h /.NX%.tXBXCXvXh s lXBXzXCX&X7.iX>.y W a Q E ] M I p P D ] o.e.I O.`.r.N M ^ Y ",
"4 $.= O : %.+ O O * K ` o o o @ B [ Q U E P i y 0 >.iX9.S.rXBXdXA.P.uXlXlX0X%.uX,X- P M t Q I [ D t P x =.X.' { I | `...K I ^ P ",
"v 1 % + v %.s +   % %.h o @ o o ) U Y i P Y P p t s (.hXh T.eXNXdXdXzXpX^.:.yXlX<.a a I y | E ` D q p E =.Q w.| =.| '...L D O.Y ",
"> S.= + h v s +   g l 8 + o * * %.6.{ W W E P p y 9 I.CX%XH.qX+X; ; 2.kX/.J.CXaXs I p Y { o.E @.k t p ~ =.U #.o.{ ] -XX.L l O.P ",
"d = = = :.; = + O = < v h o * + + > , 5 >.A D p p 6 Y.CX=X1 ,X1.o o - iXh.E.VXtX@ t x Q ) ..U O.k p p / { U O.o.| ~ '.X.) M O.P ",
"Z h + > H.H.v O & - u * + o * # E y 8 * $ ; 1 5 <.v iXlX,.: >X,.g.g.; 8X5 ,.pXtX- p p E ] Q Y o.J t P ~ ] _ o.@.| E )...K P O.P ",
"$.$.f + 1 H.A.; ; + > %.8 o @ 8 > 1 <.D t 0 * + + E.vX&X%.v I.%X, , ,.rXh w K.xXQ.6 p I P U Q E ' t Y E ~ J [ #.X.U w.X.L P o.P ",
"$.A H f O ; 5 ; : h s 6 % o O O 8 * X > 4 &.H y 1 sXuXh O O ; qXaXaXaXA.s I h sXdX- p y x p Q i E { k E p P ' O.N ' 4.i.-.P #.U ",
"C Z S S w X ; : ; :.A.%.8 @ + O =.) y w * % , 5 iXcXL.S t - h b A.A.>.A.- ,.<.G.vX%X@ i i Q p E p Y { S p p P @.) ' K '.-.Y w.U ",
"V C g V L * X ; < 1 H.H.< - % + & 2 >.L E a = qXcXtXv :.7.=X:.R.K.J.W.+X5.%.; - lXdX%.%.,.l y t P t p ( P p t U ` D { i.K E { [ ",
"C w.$.L L V *   1 I.K.A.= : < s d 6 O 1 >.s H.kXjX2.=XtXiX^.>.I.uXlX8XJ.(.,X=XJ.P.bX0X< f.c.T.K.$.f 0 t p E Q I t M ` t.t.U M W ",
"Z w.Z A L H V * X 1 H.H.% > = % < %.w 8 O G.lXcXeX7.lXQ.L.>XT.S.eXzXrXb T.<.%XtX$.bXvXR.% $ 1 f.z.N.A.G.%.t p E Q | M y 8.4.M U ",
"Z w.Z -.L V A H * . = :.: = < < A.Y.S.h $.sXzXjX,.wXpXiX=XQ.6.S.kXtXwX<.Q.yXeX8XL.&XCXiX>.O X X . X > 2 h.V.V.A.=.N U p p -.w.B ",
"Z L g -.L C H $.m * . % <.A.A.Y.H.S.<.$.rXdXcXqX1.,XrX8XrX>X&XqXsXaXeX&X@XwX8XpXwX,.kXbX>Xb w 8 + $ X X X & 2 g.x.U.H.G.-.B B U ",
"Z -.Z -.A C H e A V +   ; A.A.A.Y.Y.1 &XaXzXaX>.wXdXrXiXpXzXlX0XpXpX3X3XpXjX3XrXkX,.+XbXsXT.h I E a 8 * + X X $ $ ; 2 g.x.U.H.5.",
"Z &.C 6.=.C V C $.H w + . ; <.:.S.<.,.aXdXVX(.1.dXCXeXsX8XvXsXvXbXaXsXpXlXpXqXdXlX*XJ.vXCX,XA.6 Y W ~ ^ [ ` d X . % % X = 1 f.x.",
"V *.e 4.-.;.S $.e A e 8 +   ; A.A.b &XpXNXlXD.=X>XVXuXdXiXjXpXlXjXiXAXVXsXtX>XdXdXuX,.tXCXzX/.= S.2.L E Q Q o.[ [ d + X X X X X ",
"V 7.e *.A 6.V =.V K K q 8 + X & 2 >.aXdXVX0Xv 0X~.,XNXtXaXpXsXpX9XiXAXjXiX0XtX0X>XW.L.E.VXzX:X5 , g.V.I.6.] ^ ] W o.O.K V * X . ",
"V 6.f *.A i.Z $.V $.L F e w + +   <.xXBXcX1.J.%.g.>XuXlXtXpXpXaX8XpXCXjXaX0XaX%X&X= &X7.lXbXpXT.  % = 2 z.U.5.4.' ` [ o.O.@...f ",
"V 6.C &.-.e.=.A Z 6.-.F C e 8 O   <.zXzX0XD.D.v g.(.=XBXeXlXkXCX9X9XAXkXwXrXpXL.&Xo :.L.=XbXlXW.+ + X X % , a.x.T.9.X.X...@.#.#.",
"V 6.C $.4.3.;.F &.*.4.L H Z m 8 O <.3X,X/.<.:.:.g./.%XBXNXeXxXCX1XiXCXkXqXlXpX%X&X; > S.R.kXsXR.a Q e + . + + = , g.T.Y.9.3.X.r.",
"V 3.H Z 4.3.L H $.=.e.3.K : m e 6 ; D.H.1 <.I.:.h./.K.NXVX0XBXxX:X8XvXeXeXlX8X%X&X  $ < I.W.W.%.Q R ^ o.D *   O O O = 5 z.^.T.6.",
"H -.-.Z ;.-.3.H $.;.w 4.L f e m e * O X = S.H.5 5 U.K.kX@XeXuXxX<X5XkX0XkX,X3XQ.&X# % X = 4 < <.i.Q Q ^ ^ o...- X X O   X % 2 z.",
"g $.w.f ;.&.3.C H *.&.S ;.K 8 m e e 6 + X = H.A.1 ~.2.iXzXtXqXjX1X9XsX0XqX>X@X%XW.6 I w X $ & 3 x./.'.] ^ O.+.y.[ V * X $ X O O ",
"g =.;.f ;.,.-.g F $.&.w ;.L d d m e q * X X = 1 < :XA.&XrXW.:XjX8XpXpX@XuXeXL.aXK.# w p U s X . $ > j./.oX]  .y.u.r.o.K d +   X ",
"g -.;.h 3.,.-.C e A *.d -.3.V v Z m m 0 * X +   < aX/.7.aXpX8XxX1XlXsXiXeXuXQ.tX2.; :.v l I N - $ . . 1 j.:X9.w.| o.#.#.o.[ d + ",
"C -.3.d -.,.;.8 D g A Z C L -.g h $.m m 0 # X   - tX8XJ.dXjXxXCX:XuXdXpXNXuX%XwX>.< H.:.:.v D ~ D * $ X X , g.^.+Xe.Q ..@.#.| W ",
"V -.w.g A ,.;.s H e C A s H K V u v Z m e 0 *   + &XsX2.0XjXxXCX:XuXdXsXBX=X=X&X:.< H.OXA.:.:.j I | ) * X X X , g.^.P.e.mXX.+.[ ",
"V -.w.G g ;.*.g L e d L d Z &.4.C g Z S m q 0 + # @XkX5.=XvX9XCX/.uXlXjXlX=X=X@X>.< H.A.K.Y.<.:.b k E | D + $ $ X , j.qXZXMX..[ ",
"A -.3.J d =.-.d L H f A g f $.=.4.d Z C C m 9 6 @ @XsX7.=XlX,XCX/.uXlXpXuX%X0XT.>.< H.G.2.H.OXH.:.:.v l | | f - $ % % , !.^.OXi.",
"V -.-.G g A $.f H K d g C S h %.-.H Z e -.m q 6 O W.3X7.=XdX,XCX>XuXlX9XeX%X&XT.>.< Y.A.H.4.G.Y.OXA.:.:.v ) o.o.f - % $ % > j.M.",
"V L S C s =.$.d Z ' g g S g Z $.<.*.l C V e q 8 O R.qX7.=XuX,XCX>XeXdX1XeX0XW./.>.< S.Y.A.H.J.J.H.OXY.>.:.:.j ` | | d $ % % % 2 "
};
